<svg version="1.1" xmlns="http://www.w3.org/2000/svg" viewBox="0 0 2059.191427251035 1572.020815792992" width="6177.5742817531045" height="4716.062447378976">
  <!-- svg-source:excalidraw -->
  
  <defs>
    <style class="style-fonts">
      @font-face {
        font-family: "Virgil";
        src: url("https://excalidraw.com/Virgil.woff2");
      }
      @font-face {
        font-family: "Cascadia";
        src: url("https://excalidraw.com/Cascadia.woff2");
      }
    </style>
    
  </defs>
  <rect x="0" y="0" width="2059.191427251035" height="1572.020815792992" fill="#ffffff"></rect><g stroke-linecap="round" transform="translate(10 10) rotate(0 1019.5957136255174 776.010407896496)"><path d="M0 0 C661.62 0, 1323.25 0, 2039.19 0 M0 0 C645.32 0, 1290.65 0, 2039.19 0 M2039.19 0 C2039.19 453.17, 2039.19 906.34, 2039.19 1552.02 M2039.19 0 C2039.19 386.93, 2039.19 773.87, 2039.19 1552.02 M2039.19 1552.02 C1564.53 1552.02, 1089.87 1552.02, 0 1552.02 M2039.19 1552.02 C1518.6 1552.02, 998.01 1552.02, 0 1552.02 M0 1552.02 C0 1081.59, 0 611.16, 0 0 M0 1552.02 C0 1050.83, 0 549.64, 0 0" stroke="#1e1e1e" stroke-width="2" fill="none"></path></g><g stroke-linecap="round" transform="translate(74.58352225367435 64.98511405494173) rotate(0 960.6583989295432 714.6881810809546)"><path d="M0 0 C606.5 0, 1213 0, 1921.32 0 M1921.32 0 C1921.32 335.48, 1921.32 670.96, 1921.32 1429.38 M1921.32 1429.38 C1210.96 1429.38, 500.61 1429.38, 0 1429.38 M0 1429.38 C0 991.25, 0 553.13, 0 0" stroke="#343a40" stroke-width="1.5" fill="none" stroke-dasharray="8 9"></path></g><g transform="translate(122.5652793173067 1396.9001356775661) rotate(0 489.779052734375 30.734515284376812)"><text x="0" y="0" font-family="Cascadia, Segoe UI Emoji" font-size="49.17522445500314px" fill="#343a40" text-anchor="start" style="white-space: pre;" direction="ltr" dominant-baseline="text-before-edge">[System context] Low-Code Platform</text></g><g stroke-linecap="round" transform="translate(563.1448381021173 351.17308050833435) rotate(0 44.830902099609375 47.48755902786388)"><path d="M89.66 47.49 C89.66 49.74, 89.51 52.02, 89.21 54.25 C88.9 56.48, 88.44 58.7, 87.85 60.87 C87.25 63.03, 86.49 65.17, 85.61 67.21 C84.73 69.26, 83.69 71.27, 82.55 73.16 C81.4 75.06, 80.1 76.88, 78.71 78.59 C77.32 80.29, 75.8 81.9, 74.19 83.38 C72.58 84.85, 70.86 86.22, 69.07 87.44 C67.28 88.65, 65.39 89.75, 63.45 90.68 C61.52 91.62, 59.5 92.42, 57.46 93.05 C55.42 93.69, 53.32 94.17, 51.21 94.49 C49.11 94.81, 46.96 94.98, 44.83 94.98 C42.7 94.98, 40.56 94.81, 38.45 94.49 C36.35 94.17, 34.24 93.69, 32.2 93.05 C30.16 92.42, 28.14 91.62, 26.21 90.68 C24.27 89.75, 22.38 88.65, 20.59 87.44 C18.8 86.22, 17.08 84.85, 15.47 83.38 C13.87 81.9, 12.34 80.29, 10.95 78.59 C9.56 76.88, 8.27 75.06, 7.12 73.16 C5.97 71.27, 4.93 69.26, 4.05 67.21 C3.17 65.17, 2.42 63.03, 1.82 60.87 C1.22 58.7, 0.76 56.48, 0.46 54.25 C0.15 52.02, 0 49.74, 0 47.49 C0 45.23, 0.15 42.96, 0.46 40.73 C0.76 38.5, 1.22 36.27, 1.82 34.11 C2.42 31.95, 3.17 29.81, 4.05 27.76 C4.93 25.71, 5.97 23.71, 7.12 21.81 C8.27 19.92, 9.56 18.09, 10.95 16.39 C12.34 14.69, 13.87 13.07, 15.47 11.6 C17.08 10.12, 18.8 8.76, 20.59 7.54 C22.38 6.32, 24.27 5.23, 26.21 4.29 C28.14 3.36, 30.16 2.56, 32.2 1.92 C34.24 1.29, 36.35 0.8, 38.45 0.48 C40.56 0.16, 42.7 0, 44.83 0 C46.96 0, 49.11 0.16, 51.21 0.48 C53.32 0.8, 55.42 1.29, 57.46 1.92 C59.5 2.56, 61.52 3.36, 63.45 4.29 C65.39 5.23, 67.28 6.32, 69.07 7.54 C70.86 8.76, 72.58 10.12, 74.19 11.6 C75.8 13.07, 77.32 14.69, 78.71 16.39 C80.1 18.09, 81.4 19.92, 82.55 21.81 C83.69 23.71, 84.73 25.71, 85.61 27.76 C86.49 29.81, 87.25 31.95, 87.85 34.11 C88.44 36.27, 88.9 38.5, 89.21 40.73 C89.51 42.96, 89.59 46.36, 89.66 47.49 C89.74 48.61, 89.74 46.36, 89.66 47.49" stroke="none" stroke-width="0" fill="#0c37a2"></path><path d="M89.66 47.49 C89.66 49.74, 89.51 52.02, 89.21 54.25 C88.9 56.48, 88.44 58.7, 87.85 60.87 C87.25 63.03, 86.49 65.17, 85.61 67.21 C84.73 69.26, 83.69 71.27, 82.55 73.16 C81.4 75.06, 80.1 76.88, 78.71 78.59 C77.32 80.29, 75.8 81.9, 74.19 83.38 C72.58 84.85, 70.86 86.22, 69.07 87.44 C67.28 88.65, 65.39 89.75, 63.45 90.68 C61.52 91.62, 59.5 92.42, 57.46 93.05 C55.42 93.69, 53.32 94.17, 51.21 94.49 C49.11 94.81, 46.96 94.98, 44.83 94.98 C42.7 94.98, 40.56 94.81, 38.45 94.49 C36.35 94.17, 34.24 93.69, 32.2 93.05 C30.16 92.42, 28.14 91.62, 26.21 90.68 C24.27 89.75, 22.38 88.65, 20.59 87.44 C18.8 86.22, 17.08 84.85, 15.47 83.38 C13.87 81.9, 12.34 80.29, 10.95 78.59 C9.56 76.88, 8.27 75.06, 7.12 73.16 C5.97 71.27, 4.93 69.26, 4.05 67.21 C3.17 65.17, 2.42 63.03, 1.82 60.87 C1.22 58.7, 0.76 56.48, 0.46 54.25 C0.15 52.02, 0 49.74, 0 47.49 C0 45.23, 0.15 42.96, 0.46 40.73 C0.76 38.5, 1.22 36.27, 1.82 34.11 C2.42 31.95, 3.17 29.81, 4.05 27.76 C4.93 25.71, 5.97 23.71, 7.12 21.81 C8.27 19.92, 9.56 18.09, 10.95 16.39 C12.34 14.69, 13.87 13.07, 15.47 11.6 C17.08 10.12, 18.8 8.76, 20.59 7.54 C22.38 6.32, 24.27 5.23, 26.21 4.29 C28.14 3.36, 30.16 2.56, 32.2 1.92 C34.24 1.29, 36.35 0.8, 38.45 0.48 C40.56 0.16, 42.7 0, 44.83 0 C46.96 0, 49.11 0.16, 51.21 0.48 C53.32 0.8, 55.42 1.29, 57.46 1.92 C59.5 2.56, 61.52 3.36, 63.45 4.29 C65.39 5.23, 67.28 6.32, 69.07 7.54 C70.86 8.76, 72.58 10.12, 74.19 11.6 C75.8 13.07, 77.32 14.69, 78.71 16.39 C80.1 18.09, 81.4 19.92, 82.55 21.81 C83.69 23.71, 84.73 25.71, 85.61 27.76 C86.49 29.81, 87.25 31.95, 87.85 34.11 C88.44 36.27, 88.9 38.5, 89.21 40.73 C89.51 42.96, 89.59 46.36, 89.66 47.49 C89.74 48.61, 89.74 46.36, 89.66 47.49" stroke="#0c37a2" stroke-width="1" fill="none"></path></g><g stroke-linecap="round" transform="translate(493.88305831696107 437.89626069785027) rotate(0 112.67050170898438 70.04611040837608)"><path d="M35.02 0 L190.32 0 L198.53 0.55 L205.64 2.19 L211.66 4.93 L216.59 8.76 L220.42 13.68 L223.15 19.7 L224.79 26.81 L225.34 105.07 L224.79 113.28 L223.15 120.39 L220.42 126.41 L216.59 131.34 L211.66 135.17 L205.64 137.9 L198.53 139.54 L190.32 140.09 L35.02 140.09 L26.81 139.54 L19.7 137.9 L13.68 135.17 L8.76 131.34 L4.93 126.41 L2.19 120.39 L0.55 113.28 L0 105.07 L0.55 26.81 L2.19 19.7 L4.93 13.68 L8.76 8.76 L13.68 4.93 L19.7 2.19 L26.81 0.55 L35.02 0" stroke="none" stroke-width="0" fill="#0c37a2"></path><path d="M35.02 0 M35.02 0 C75.1 0, 115.18 0, 190.32 0 M35.02 0 C91.18 0, 147.33 0, 190.32 0 M190.32 0 C213.67 0, 225.34 11.67, 225.34 35.02 M190.32 0 C213.67 0, 225.34 11.67, 225.34 35.02 M225.34 35.02 C225.34 51.11, 225.34 67.2, 225.34 105.07 M225.34 35.02 C225.34 56.3, 225.34 77.57, 225.34 105.07 M225.34 105.07 C225.34 128.42, 213.67 140.09, 190.32 140.09 M225.34 105.07 C225.34 128.42, 213.67 140.09, 190.32 140.09 M190.32 140.09 C140.46 140.09, 90.6 140.09, 35.02 140.09 M190.32 140.09 C136.74 140.09, 83.16 140.09, 35.02 140.09 M35.02 140.09 C11.67 140.09, 0 128.42, 0 105.07 M35.02 140.09 C11.67 140.09, 0 128.42, 0 105.07 M0 105.07 C0 79.6, 0 54.13, 0 35.02 M0 105.07 C0 89.86, 0 74.64, 0 35.02 M0 35.02 C0 11.67, 11.67 0, 35.02 0 M0 35.02 C0 11.67, 11.67 0, 35.02 0" stroke="#0c37a2" stroke-width="1" fill="none"></path></g><g transform="translate(530.4539423162087 440.02994620292793) rotate(0 76.171875 12)"><text x="76.171875" y="0" font-family="Cascadia, Segoe UI Emoji" font-size="20px" fill="#fff" text-anchor="middle" style="white-space: pre;" direction="ltr" dominant-baseline="text-before-edge">Business User</text></g><g transform="translate(558.6532983953102 466.42301897178095) rotate(0 46.875 12)"><text x="46.875" y="0" font-family="Cascadia, Segoe UI Emoji" font-size="20px" fill="#fff" text-anchor="middle" style="white-space: pre;" direction="ltr" dominant-baseline="text-before-edge">[person]</text></g><g transform="translate(499.27750671192825 507.7544043176158) rotate(0 105.46875 36)"><text x="105.46875" y="0" font-family="Cascadia, Segoe UI Emoji" font-size="20px" fill="#fff" text-anchor="middle" style="white-space: pre;" direction="ltr" dominant-baseline="text-before-edge">A staff tasked</text><text x="105.46875" y="24" font-family="Cascadia, Segoe UI Emoji" font-size="20px" fill="#fff" text-anchor="middle" style="white-space: pre;" direction="ltr" dominant-baseline="text-before-edge">with operating the</text><text x="105.46875" y="48" font-family="Cascadia, Segoe UI Emoji" font-size="20px" fill="#fff" text-anchor="middle" style="white-space: pre;" direction="ltr" dominant-baseline="text-before-edge"> system</text></g><g stroke-linecap="round" transform="translate(461.7456224238231 928.7347945966412) rotate(0 146.45305779648743 90.9177690617962)"><path d="M0 0 L292.91 0 L292.91 181.84 L0 181.84" stroke="none" stroke-width="0" fill="#228be6"></path><path d="M0 0 C101.87 0, 203.74 0, 292.91 0 M0 0 C77.93 0, 155.87 0, 292.91 0 M292.91 0 C292.91 71.21, 292.91 142.43, 292.91 181.84 M292.91 0 C292.91 72.21, 292.91 144.43, 292.91 181.84 M292.91 181.84 C210.56 181.84, 128.2 181.84, 0 181.84 M292.91 181.84 C229.28 181.84, 165.66 181.84, 0 181.84 M0 181.84 C0 139.36, 0 96.89, 0 0 M0 181.84 C0 112.94, 0 44.05, 0 0" stroke="#343a40" stroke-width="1" fill="none"></path></g><g transform="translate(507.884019146406 943.3587222434253) rotate(0 99.609375 12)"><text x="99.609375" y="0" font-family="Cascadia, Segoe UI Emoji" font-size="20px" fill="#fff" text-anchor="middle" style="white-space: pre;" direction="ltr" dominant-baseline="text-before-edge">Low-Code Platform</text></g><g transform="translate(520.5517157905542 979.8149790789448) rotate(0 79.6875 10)"><text x="79.6875" y="0" font-family="Cascadia, Segoe UI Emoji" font-size="16px" fill="#fff" text-anchor="middle" style="white-space: pre;" direction="ltr" dominant-baseline="text-before-edge">[software system]</text></g><g transform="translate(467.36685444694194 1007.0130859843302) rotate(0 140.625 48)"><text x="140.625" y="0" font-family="Cascadia, Segoe UI Emoji" font-size="20px" fill="#fff" text-anchor="middle" style="white-space: pre;" direction="ltr" dominant-baseline="text-before-edge">Allow users to create</text><text x="140.625" y="24" font-family="Cascadia, Segoe UI Emoji" font-size="20px" fill="#fff" text-anchor="middle" style="white-space: pre;" direction="ltr" dominant-baseline="text-before-edge"> GUI, define workflows </text><text x="140.625" y="48" font-family="Cascadia, Segoe UI Emoji" font-size="20px" fill="#fff" text-anchor="middle" style="white-space: pre;" direction="ltr" dominant-baseline="text-before-edge">and</text><text x="140.625" y="72" font-family="Cascadia, Segoe UI Emoji" font-size="20px" fill="#fff" text-anchor="middle" style="white-space: pre;" direction="ltr" dominant-baseline="text-before-edge"> generate an application</text></g><g mask="url(#mask-6uJySA9CXSdzDv1-J2NGG)" stroke-linecap="round"><g transform="translate(609.0209160147424 604.1563154922087) rotate(0 -0.2672466816857195 154.5216657529154)"><path d="M0 0 C-0.2 114.26, -0.4 228.52, -0.53 309.04" stroke="#1e1e1e" stroke-width="2.5" fill="none" stroke-dasharray="8 10"></path></g><g transform="translate(609.0209160147424 604.1563154922087) rotate(0 -0.2672466816857195 154.5216657529154)"><path d="M-0.53 309.04 L-6.85 295.44 L5.83 295.46 L-0.53 309.04" stroke="none" stroke-width="0" fill="#1e1e1e" fill-rule="evenodd"></path><path d="M-0.53 309.04 C-2.87 304.01, -5.2 298.98, -6.85 295.44 M-6.85 295.44 C-2.96 295.44, 0.92 295.45, 5.83 295.46 M5.83 295.46 C3.68 300.04, 1.54 304.62, -0.53 309.04 M-0.53 309.04 C-0.53 309.04, -0.53 309.04, -0.53 309.04" stroke="#1e1e1e" stroke-width="2.5" fill="none"></path></g></g><mask id="mask-6uJySA9CXSdzDv1-J2NGG"><rect x="0" y="0" fill="#fff" width="709.5554093781138" height="1013.1996469980395"></rect><rect x="503.2849193330567" y="710.6779812451241" fill="#000" width="210.9375" height="96" opacity="1"></rect></mask><g transform="translate(503.2849193330567 710.6779812451241) rotate(0 105.46875 48)"><text x="105.46875" y="0" font-family="Cascadia, Segoe UI Emoji" font-size="20px" fill="#1e1e1e" text-anchor="middle" style="white-space: pre;" direction="ltr" dominant-baseline="text-before-edge">View, Create GUI, </text><text x="105.46875" y="24" font-family="Cascadia, Segoe UI Emoji" font-size="20px" fill="#1e1e1e" text-anchor="middle" style="white-space: pre;" direction="ltr" dominant-baseline="text-before-edge">Workflows &amp; </text><text x="105.46875" y="48" font-family="Cascadia, Segoe UI Emoji" font-size="20px" fill="#1e1e1e" text-anchor="middle" style="white-space: pre;" direction="ltr" dominant-baseline="text-before-edge">Generate </text><text x="105.46875" y="72" font-family="Cascadia, Segoe UI Emoji" font-size="20px" fill="#1e1e1e" text-anchor="middle" style="white-space: pre;" direction="ltr" dominant-baseline="text-before-edge">Application using</text></g><g stroke-linecap="round" transform="translate(1219.2446849741673 1163.8296829526735) rotate(0 140.12552699261096 69.5)"><path d="M0 0 L280.25 0 L280.25 139 L0 139" stroke="none" stroke-width="0" fill="#868e96"></path><path d="M0 0 C66.72 0, 133.44 0, 280.25 0 M0 0 C66.68 0, 133.37 0, 280.25 0 M280.25 0 C280.25 54.97, 280.25 109.94, 280.25 139 M280.25 0 C280.25 36.3, 280.25 72.6, 280.25 139 M280.25 139 C211.91 139, 143.57 139, 0 139 M280.25 139 C192.52 139, 104.79 139, 0 139 M0 139 C0 89.15, 0 39.29, 0 0 M0 139 C0 85.95, 0 32.9, 0 0" stroke="#000000" stroke-width="1" fill="none"></path></g><g transform="translate(1242.159713531235 1177.8944958918364) rotate(0 117.1875 12)"><text x="0" y="0" font-family="Cascadia, Segoe UI Emoji" font-size="20px" fill="#fff" text-anchor="start" style="white-space: pre;" direction="ltr" dominant-baseline="text-before-edge">External Data Source</text></g><g transform="translate(1278.2591965773054 1217.2737291644535) rotate(0 79.6875 9.599999999999909)"><text x="79.6875" y="0" font-family="Cascadia, Segoe UI Emoji" font-size="16px" fill="#fff" text-anchor="middle" style="white-space: pre;" direction="ltr" dominant-baseline="text-before-edge">[software system]</text></g><g transform="translate(1233.3456829369998 1244.2522963644715) rotate(0 117.1875 24)"><text x="117.1875" y="0" font-family="Cascadia, Segoe UI Emoji" font-size="20px" fill="#fff" text-anchor="middle" style="white-space: pre;" direction="ltr" dominant-baseline="text-before-edge">Provide data via API</text><text x="117.1875" y="24" font-family="Cascadia, Segoe UI Emoji" font-size="20px" fill="#fff" text-anchor="middle" style="white-space: pre;" direction="ltr" dominant-baseline="text-before-edge"> Endpoints, etc.</text></g><g mask="url(#mask-R1DRwxobFD_MK6_Dk3LkV)" stroke-linecap="round"><g transform="translate(778.4145962175126 1083.6537668350893) rotate(0 208.11333069224793 56.063119838776856)"><path d="M0 0 C108.45 29.21, 216.89 58.43, 416.23 112.13" stroke="#1e1e1e" stroke-width="2.5" fill="none" stroke-dasharray="8 10"></path></g><g transform="translate(778.4145962175126 1083.6537668350893) rotate(0 208.11333069224793 56.063119838776856)"><path d="M416.23 112.13 L401.45 114.71 L404.75 102.47 L416.23 112.13" stroke="none" stroke-width="0" fill="#1e1e1e" fill-rule="evenodd"></path><path d="M416.23 112.13 C412.38 112.8, 408.53 113.47, 401.45 114.71 M401.45 114.71 C402.52 110.73, 403.59 106.76, 404.75 102.47 M404.75 102.47 C409.31 106.3, 413.86 110.14, 416.23 112.13 M416.23 112.13 C416.23 112.13, 416.23 112.13, 416.23 112.13" stroke="#1e1e1e" stroke-width="2.5" fill="none"></path></g></g><mask id="mask-R1DRwxobFD_MK6_Dk3LkV"><rect x="0" y="0" fill="#fff" width="1294.6412576020084" height="1295.780006512643"></rect><rect x="881.0591769097609" y="1127.7168866738675" fill="#000" width="210.9375" height="24" opacity="1"></rect></mask><g transform="translate(881.0591769097609 1127.7168866738666) rotate(0 105.46874999999955 11.999999999999545)"><text x="105.46875" y="0" font-family="Cascadia, Segoe UI Emoji" font-size="20px" fill="#1e1e1e" text-anchor="middle" style="white-space: pre;" direction="ltr" dominant-baseline="text-before-edge">Exchange data with</text></g><g stroke-linecap="round" transform="translate(1690.8670397062433 1310.4153151777919) rotate(0 144 22)"><path d="M0 0 L288 0 L288 44 L0 44" stroke="none" stroke-width="0" fill="#0c37a2"></path><path d="M0 0 C85.73 0, 171.46 0, 288 0 M0 0 C58.36 0, 116.72 0, 288 0 M288 0 C288 15.74, 288 31.47, 288 44 M288 0 C288 9.14, 288 18.29, 288 44 M288 44 C216.97 44, 145.94 44, 0 44 M288 44 C185.78 44, 83.56 44, 0 44 M0 44 C0 27.87, 0 11.73, 0 0 M0 44 C0 31.98, 0 19.97, 0 0" stroke="transparent" stroke-width="4" fill="none"></path></g><g transform="translate(1785.6482897062433 1315.6153151777917) rotate(0 49.21875 16.800000000000182)"><text x="49.21875" y="0" font-family="Cascadia, Segoe UI Emoji" font-size="28px" fill="#fff" text-anchor="middle" style="white-space: pre;" direction="ltr" dominant-baseline="text-before-edge">Person</text></g><g stroke-linecap="round" transform="translate(1690.8670397062433 1370.0961841522312) rotate(0 144 22)"><path d="M0 0 L288 0 L288 44 L0 44" stroke="none" stroke-width="0" fill="#228ae7"></path><path d="M0 0 C81.24 0, 162.49 0, 288 0 M0 0 C68.79 0, 137.57 0, 288 0 M288 0 C288 11.1, 288 22.19, 288 44 M288 0 C288 15.97, 288 31.94, 288 44 M288 44 C205.12 44, 122.23 44, 0 44 M288 44 C178.37 44, 68.74 44, 0 44 M0 44 C0 27.61, 0 11.23, 0 0 M0 44 C0 26.44, 0 8.88, 0 0" stroke="transparent" stroke-width="4" fill="none"></path></g><g transform="translate(1785.6482897062433 1375.296184152231) rotate(0 49.21875 16.800000000000182)"><text x="49.21875" y="0" font-family="Cascadia, Segoe UI Emoji" font-size="28px" fill="#fff" text-anchor="middle" style="white-space: pre;" direction="ltr" dominant-baseline="text-before-edge">System</text></g><g stroke-linecap="round" transform="translate(1690.8670397062433 1430.9043947311711) rotate(0 144.5 22)"><path d="M0 0 L289 0 L289 44 L0 44" stroke="none" stroke-width="0" fill="#878f96"></path><path d="M0 0 C78.81 0, 157.63 0, 289 0 M0 0 C104.77 0, 209.54 0, 289 0 M289 0 C289 17.2, 289 34.4, 289 44 M289 0 C289 15.67, 289 31.33, 289 44 M289 44 C222.24 44, 155.47 44, 0 44 M289 44 C222.18 44, 155.37 44, 0 44 M0 44 C0 28.8, 0 13.59, 0 0 M0 44 C0 27.04, 0 10.08, 0 0" stroke="transparent" stroke-width="4" fill="none"></path></g><g transform="translate(1712.3201647062433 1436.104394731171) rotate(0 123.046875 16.800000000000182)"><text x="123.046875" y="0" font-family="Cascadia, Segoe UI Emoji" font-size="28px" fill="#fff" text-anchor="middle" style="white-space: pre;" direction="ltr" dominant-baseline="text-before-edge">External System</text></g><g stroke-linecap="round" transform="translate(1321.281125269299 200.88972508348616) rotate(0 44.830902099609375 47.48755902786388)"><path d="M89.66 47.49 C89.66 49.74, 89.51 52.02, 89.21 54.25 C88.9 56.48, 88.44 58.7, 87.85 60.87 C87.25 63.03, 86.49 65.17, 85.61 67.21 C84.73 69.26, 83.69 71.27, 82.55 73.16 C81.4 75.06, 80.1 76.88, 78.71 78.59 C77.32 80.29, 75.8 81.9, 74.19 83.38 C72.58 84.85, 70.86 86.22, 69.07 87.44 C67.28 88.65, 65.39 89.75, 63.45 90.68 C61.52 91.62, 59.5 92.42, 57.46 93.05 C55.42 93.69, 53.32 94.17, 51.21 94.49 C49.11 94.81, 46.96 94.98, 44.83 94.98 C42.7 94.98, 40.56 94.81, 38.45 94.49 C36.35 94.17, 34.24 93.69, 32.2 93.05 C30.16 92.42, 28.14 91.62, 26.21 90.68 C24.27 89.75, 22.38 88.65, 20.59 87.44 C18.8 86.22, 17.08 84.85, 15.47 83.38 C13.87 81.9, 12.34 80.29, 10.95 78.59 C9.56 76.88, 8.27 75.06, 7.12 73.16 C5.97 71.27, 4.93 69.26, 4.05 67.21 C3.17 65.17, 2.42 63.03, 1.82 60.87 C1.22 58.7, 0.76 56.48, 0.46 54.25 C0.15 52.02, 0 49.74, 0 47.49 C0 45.23, 0.15 42.96, 0.46 40.73 C0.76 38.5, 1.22 36.27, 1.82 34.11 C2.42 31.95, 3.17 29.81, 4.05 27.76 C4.93 25.71, 5.97 23.71, 7.12 21.81 C8.27 19.92, 9.56 18.09, 10.95 16.39 C12.34 14.69, 13.87 13.07, 15.47 11.6 C17.08 10.12, 18.8 8.76, 20.59 7.54 C22.38 6.32, 24.27 5.23, 26.21 4.29 C28.14 3.36, 30.16 2.56, 32.2 1.92 C34.24 1.29, 36.35 0.8, 38.45 0.48 C40.56 0.16, 42.7 0, 44.83 0 C46.96 0, 49.11 0.16, 51.21 0.48 C53.32 0.8, 55.42 1.29, 57.46 1.92 C59.5 2.56, 61.52 3.36, 63.45 4.29 C65.39 5.23, 67.28 6.32, 69.07 7.54 C70.86 8.76, 72.58 10.12, 74.19 11.6 C75.8 13.07, 77.32 14.69, 78.71 16.39 C80.1 18.09, 81.4 19.92, 82.55 21.81 C83.69 23.71, 84.73 25.71, 85.61 27.76 C86.49 29.81, 87.25 31.95, 87.85 34.11 C88.44 36.27, 88.9 38.5, 89.21 40.73 C89.51 42.96, 89.59 46.36, 89.66 47.49 C89.74 48.61, 89.74 46.36, 89.66 47.49" stroke="none" stroke-width="0" fill="#0c37a2"></path><path d="M89.66 47.49 C89.66 49.74, 89.51 52.02, 89.21 54.25 C88.9 56.48, 88.44 58.7, 87.85 60.87 C87.25 63.03, 86.49 65.17, 85.61 67.21 C84.73 69.26, 83.69 71.27, 82.55 73.16 C81.4 75.06, 80.1 76.88, 78.71 78.59 C77.32 80.29, 75.8 81.9, 74.19 83.38 C72.58 84.85, 70.86 86.22, 69.07 87.44 C67.28 88.65, 65.39 89.75, 63.45 90.68 C61.52 91.62, 59.5 92.42, 57.46 93.05 C55.42 93.69, 53.32 94.17, 51.21 94.49 C49.11 94.81, 46.96 94.98, 44.83 94.98 C42.7 94.98, 40.56 94.81, 38.45 94.49 C36.35 94.17, 34.24 93.69, 32.2 93.05 C30.16 92.42, 28.14 91.62, 26.21 90.68 C24.27 89.75, 22.38 88.65, 20.59 87.44 C18.8 86.22, 17.08 84.85, 15.47 83.38 C13.87 81.9, 12.34 80.29, 10.95 78.59 C9.56 76.88, 8.27 75.06, 7.12 73.16 C5.97 71.27, 4.93 69.26, 4.05 67.21 C3.17 65.17, 2.42 63.03, 1.82 60.87 C1.22 58.7, 0.76 56.48, 0.46 54.25 C0.15 52.02, 0 49.74, 0 47.49 C0 45.23, 0.15 42.96, 0.46 40.73 C0.76 38.5, 1.22 36.27, 1.82 34.11 C2.42 31.95, 3.17 29.81, 4.05 27.76 C4.93 25.71, 5.97 23.71, 7.12 21.81 C8.27 19.92, 9.56 18.09, 10.95 16.39 C12.34 14.69, 13.87 13.07, 15.47 11.6 C17.08 10.12, 18.8 8.76, 20.59 7.54 C22.38 6.32, 24.27 5.23, 26.21 4.29 C28.14 3.36, 30.16 2.56, 32.2 1.92 C34.24 1.29, 36.35 0.8, 38.45 0.48 C40.56 0.16, 42.7 0, 44.83 0 C46.96 0, 49.11 0.16, 51.21 0.48 C53.32 0.8, 55.42 1.29, 57.46 1.92 C59.5 2.56, 61.52 3.36, 63.45 4.29 C65.39 5.23, 67.28 6.32, 69.07 7.54 C70.86 8.76, 72.58 10.12, 74.19 11.6 C75.8 13.07, 77.32 14.69, 78.71 16.39 C80.1 18.09, 81.4 19.92, 82.55 21.81 C83.69 23.71, 84.73 25.71, 85.61 27.76 C86.49 29.81, 87.25 31.95, 87.85 34.11 C88.44 36.27, 88.9 38.5, 89.21 40.73 C89.51 42.96, 89.59 46.36, 89.66 47.49 C89.74 48.61, 89.74 46.36, 89.66 47.49" stroke="#0c37a2" stroke-width="1" fill="none"></path></g><g stroke-linecap="round" transform="translate(1252.0193454841428 287.61290527300207) rotate(0 112.67050170898438 70.04611040837608)"><path d="M35.02 0 L190.32 0 L198.53 0.55 L205.64 2.19 L211.66 4.93 L216.59 8.76 L220.42 13.68 L223.15 19.7 L224.79 26.81 L225.34 105.07 L224.79 113.28 L223.15 120.39 L220.42 126.41 L216.59 131.34 L211.66 135.17 L205.64 137.9 L198.53 139.54 L190.32 140.09 L35.02 140.09 L26.81 139.54 L19.7 137.9 L13.68 135.17 L8.76 131.34 L4.93 126.41 L2.19 120.39 L0.55 113.28 L0 105.07 L0.55 26.81 L2.19 19.7 L4.93 13.68 L8.76 8.76 L13.68 4.93 L19.7 2.19 L26.81 0.55 L35.02 0" stroke="none" stroke-width="0" fill="#0c37a2"></path><path d="M35.02 0 M35.02 0 C96.22 0, 157.41 0, 190.32 0 M35.02 0 C87.04 0, 139.06 0, 190.32 0 M190.32 0 C213.67 0, 225.34 11.67, 225.34 35.02 M190.32 0 C213.67 0, 225.34 11.67, 225.34 35.02 M225.34 35.02 C225.34 55.73, 225.34 76.44, 225.34 105.07 M225.34 35.02 C225.34 58.75, 225.34 82.48, 225.34 105.07 M225.34 105.07 C225.34 128.42, 213.67 140.09, 190.32 140.09 M225.34 105.07 C225.34 128.42, 213.67 140.09, 190.32 140.09 M190.32 140.09 C143.43 140.09, 96.54 140.09, 35.02 140.09 M190.32 140.09 C151.03 140.09, 111.75 140.09, 35.02 140.09 M35.02 140.09 C11.67 140.09, 0 128.42, 0 105.07 M35.02 140.09 C11.67 140.09, 0 128.42, 0 105.07 M0 105.07 C0 89.64, 0 74.21, 0 35.02 M0 105.07 C0 90.95, 0 76.83, 0 35.02 M0 35.02 C0 11.67, 11.67 0, 35.02 0 M0 35.02 C0 11.67, 11.67 0, 35.02 0" stroke="#0c37a2" stroke-width="1" fill="none"></path></g><g transform="translate(1271.0121044833904 289.74659077807974) rotate(0 93.75 12)"><text x="93.75" y="0" font-family="Cascadia, Segoe UI Emoji" font-size="20px" fill="#fff" text-anchor="middle" style="white-space: pre;" direction="ltr" dominant-baseline="text-before-edge">Application User</text></g><g transform="translate(1316.789585562492 316.13966354693275) rotate(0 46.875 12)"><text x="46.875" y="0" font-family="Cascadia, Segoe UI Emoji" font-size="20px" fill="#fff" text-anchor="middle" style="white-space: pre;" direction="ltr" dominant-baseline="text-before-edge">[person]</text></g><g transform="translate(1300.42941887911 352.1341427108) rotate(0 64.453125 36)"><text x="64.453125" y="0" font-family="Cascadia, Segoe UI Emoji" font-size="20px" fill="#fff" text-anchor="middle" style="white-space: pre;" direction="ltr" dominant-baseline="text-before-edge">End-user of</text><text x="64.453125" y="24" font-family="Cascadia, Segoe UI Emoji" font-size="20px" fill="#fff" text-anchor="middle" style="white-space: pre;" direction="ltr" dominant-baseline="text-before-edge">deployed</text><text x="64.453125" y="48" font-family="Cascadia, Segoe UI Emoji" font-size="20px" fill="#fff" text-anchor="middle" style="white-space: pre;" direction="ltr" dominant-baseline="text-before-edge">application</text></g><g stroke-linecap="round" transform="translate(1220.4052055773782 555.6921944827063) rotate(0 140.12552699261096 69.5)"><path d="M0 0 L280.25 0 L280.25 139 L0 139" stroke="none" stroke-width="0" fill="#868e96"></path><path d="M0 0 C98.67 0, 197.34 0, 280.25 0 M0 0 C92.01 0, 184.02 0, 280.25 0 M280.25 0 C280.25 27.84, 280.25 55.68, 280.25 139 M280.25 0 C280.25 34.28, 280.25 68.57, 280.25 139 M280.25 139 C214.7 139, 149.15 139, 0 139 M280.25 139 C184.2 139, 88.16 139, 0 139 M0 139 C0 103.44, 0 67.88, 0 0 M0 139 C0 88.69, 0 38.38, 0 0" stroke="#000000" stroke-width="1" fill="none"></path></g><g transform="translate(1298.7164111080283 570.0406107602648) rotate(0 64.453125 12)"><text x="0" y="0" font-family="Cascadia, Segoe UI Emoji" font-size="20px" fill="#fff" text-anchor="start" style="white-space: pre;" direction="ltr" dominant-baseline="text-before-edge">Web Browser</text></g><g transform="translate(1279.4197171805163 609.1362406944845) rotate(0 79.6875 9.599999999999909)"><text x="79.6875" y="0" font-family="Cascadia, Segoe UI Emoji" font-size="16px" fill="#fff" text-anchor="middle" style="white-space: pre;" direction="ltr" dominant-baseline="text-before-edge">[software system]</text></g><g transform="translate(1252.4603194036163 642.2644674832045) rotate(0 111.328125 12)"><text x="111.328125" y="0" font-family="Cascadia, Segoe UI Emoji" font-size="20px" fill="#fff" text-anchor="middle" style="white-space: pre;" direction="ltr" dominant-baseline="text-before-edge">Desktop web browser</text></g><g mask="url(#mask-Sa7mUALaNSdY4ML-osS4D)" stroke-linecap="round"><g transform="translate(1364.0506085758889 433.04889250500037) rotate(0 -0.9420878257024015 48.45447737391032)"><path d="M0 0 C-0.55 28.4, -1.1 56.81, -1.88 96.91" stroke="#343a40" stroke-width="2.5" fill="none" stroke-dasharray="8 10"></path></g><g transform="translate(1364.0506085758889 433.04889250500037) rotate(0 -0.9420878257024015 48.45447737391032)"><path d="M-1.88 96.91 L-7.96 83.19 L4.72 83.44 L-1.88 96.91" stroke="none" stroke-width="0" fill="#343a40" fill-rule="evenodd"></path><path d="M-1.88 96.91 C-3.66 92.89, -5.44 88.87, -7.96 83.19 M-7.96 83.19 C-4.46 83.26, -0.96 83.33, 4.72 83.44 M4.72 83.44 C2.89 87.17, 1.06 90.9, -1.88 96.91 M-1.88 96.91 C-1.88 96.91, -1.88 96.91, -1.88 96.91" stroke="#343a40" stroke-width="2.5" fill="none"></path></g></g><mask id="mask-Sa7mUALaNSdY4ML-osS4D"><rect x="0" y="0" fill="#fff" width="1465.9347842272937" height="629.957847252821"></rect><rect x="1339.6710207501865" y="469.50336987891023" fill="#000" width="46.875" height="24" opacity="1"></rect></mask><g transform="translate(1339.6710207501856 469.50336987891023) rotate(0 23.4375 12.000000000000455)"><text x="23.4375" y="0" font-family="Cascadia, Segoe UI Emoji" font-size="20px" fill="#343a40" text-anchor="middle" style="white-space: pre;" direction="ltr" dominant-baseline="text-before-edge">Uses</text></g><g mask="url(#mask-3TMWaKSMrLKXVZbkULhsO)" stroke-linecap="round"><g transform="translate(1361.8061497341714 710.1123772069186) rotate(0 -0.26413059011565565 104.56723332276033)"><path d="M0 0 C-0.16 62.78, -0.32 125.56, -0.53 209.13" stroke="#343a40" stroke-width="2.5" fill="none" stroke-dasharray="8 10"></path></g><g transform="translate(1361.8061497341714 710.1123772069186) rotate(0 -0.26413059011565565 104.56723332276033)"><path d="M-0.53 209.13 L-6.83 195.52 L5.85 195.56 L-0.53 209.13" stroke="none" stroke-width="0" fill="#343a40" fill-rule="evenodd"></path><path d="M-0.53 209.13 C-2.42 205.05, -4.31 200.96, -6.83 195.52 M-6.83 195.52 C-1.8 195.54, 3.23 195.55, 5.85 195.56 M5.85 195.56 C3.97 199.55, 2.1 203.54, -0.53 209.13 M-0.53 209.13 C-0.53 209.13, -0.53 209.13, -0.53 209.13" stroke="#343a40" stroke-width="2.5" fill="none"></path></g></g><mask id="mask-3TMWaKSMrLKXVZbkULhsO"><rect x="0" y="0" fill="#fff" width="1462.3344109144027" height="1019.2468438524393"></rect><rect x="1267.7920191440553" y="790.6796105296789" fill="#000" width="187.5" height="48" opacity="1"></rect></mask><g transform="translate(1267.7920191440553 790.6796105296789) rotate(0 93.75000000000045 24)"><text x="93.75" y="0" font-family="Cascadia, Segoe UI Emoji" font-size="20px" fill="#343a40" text-anchor="middle" style="white-space: pre;" direction="ltr" dominant-baseline="text-before-edge">Access deployed </text><text x="93.75" y="24" font-family="Cascadia, Segoe UI Emoji" font-size="20px" fill="#343a40" text-anchor="middle" style="white-space: pre;" direction="ltr" dominant-baseline="text-before-edge">application via</text></g><g stroke-linecap="round" transform="translate(1217.5835112426766 944.5970273229659) rotate(0 140.12552699261096 69.5)"><path d="M0 0 L280.25 0 L280.25 139 L0 139" stroke="none" stroke-width="0" fill="#868e96"></path><path d="M0 0 C70.5 0, 141 0, 280.25 0 M0 0 C85.12 0, 170.24 0, 280.25 0 M280.25 0 C280.25 43.35, 280.25 86.7, 280.25 139 M280.25 0 C280.25 31.5, 280.25 63, 280.25 139 M280.25 139 C186.81 139, 93.38 139, 0 139 M280.25 139 C172.63 139, 65.02 139, 0 139 M0 139 C0 84.81, 0 30.61, 0 0 M0 139 C0 96.82, 0 54.63, 0 0" stroke="#000000" stroke-width="1" fill="none"></path></g><g transform="translate(1274.474207180876 958.0412486022615) rotate(0 82.03125 12)"><text x="0" y="0" font-family="Cascadia, Segoe UI Emoji" font-size="20px" fill="#fff" text-anchor="start" style="white-space: pre;" direction="ltr" dominant-baseline="text-before-edge">CLoud Provider</text></g><g transform="translate(1276.5980228458147 998.0410735347477) rotate(0 79.6875 9.599999999999909)"><text x="79.6875" y="0" font-family="Cascadia, Segoe UI Emoji" font-size="16px" fill="#fff" text-anchor="middle" style="white-space: pre;" direction="ltr" dominant-baseline="text-before-edge">[software system]</text></g><g transform="translate(1227.8556595048958 1024.6218773845758) rotate(0 128.90625 24)"><text x="128.90625" y="0" font-family="Cascadia, Segoe UI Emoji" font-size="20px" fill="#fff" text-anchor="middle" style="white-space: pre;" direction="ltr" dominant-baseline="text-before-edge">Provide build &amp; deploy</text><text x="128.90625" y="24" font-family="Cascadia, Segoe UI Emoji" font-size="20px" fill="#fff" text-anchor="middle" style="white-space: pre;" direction="ltr" dominant-baseline="text-before-edge">automation.</text></g><g mask="url(#mask-YzOOXKuK2pTRmus1Jr89r)" stroke-linecap="round"><g transform="translate(781.5567396193856 1016.9542129019692) rotate(0 203.48782776372082 0.46865682959241894)"><path d="M0 0 C98.65 0.23, 197.29 0.45, 406.98 0.94" stroke="#343a40" stroke-width="2.5" fill="none" stroke-dasharray="8 10"></path></g><g transform="translate(781.5567396193856 1016.9542129019692) rotate(0 203.48782776372082 0.46865682959241894)"><path d="M406.98 0.94 L393.37 7.25 L393.4 -5.43 L406.98 0.94" stroke="none" stroke-width="0" fill="#343a40" fill-rule="evenodd"></path><path d="M406.98 0.94 C403.68 2.47, 400.38 4, 393.37 7.25 M393.37 7.25 C393.38 3.25, 393.38 -0.75, 393.4 -5.43 M393.4 -5.43 C398.46 -3.06, 403.52 -0.69, 406.98 0.94 M406.98 0.94 C406.98 0.94, 406.98 0.94, 406.98 0.94" stroke="#343a40" stroke-width="2.5" fill="none"></path></g></g><mask id="mask-YzOOXKuK2pTRmus1Jr89r"><rect x="0" y="0" fill="#fff" width="1288.5323951468272" height="1117.891526561154"></rect><rect x="856.1383173831064" y="1005.4228697315611" fill="#000" width="257.8125" height="24" opacity="1"></rect></mask><g transform="translate(856.1383173831064 1005.4228697315611) rotate(0 128.90625 12.000000000000455)"><text x="128.90625" y="0" font-family="Cascadia, Segoe UI Emoji" font-size="20px" fill="#343a40" text-anchor="middle" style="white-space: pre;" direction="ltr" dominant-baseline="text-before-edge">Deploy applications to</text></g></svg>