<svg version="1.1" xmlns="http://www.w3.org/2000/svg" viewBox="0 0 3475.514818123289 1822.0670193934484" width="10426.544454369867" height="5466.201058180345">
  <!-- svg-source:excalidraw -->
  
  <defs>
    <style class="style-fonts">
      @font-face {
        font-family: "Virgil";
        src: url("https://excalidraw.com/Virgil.woff2");
      }
      @font-face {
        font-family: "Cascadia";
        src: url("https://excalidraw.com/Cascadia.woff2");
      }
    </style>
    <clipPath id="WaAJ9bPjR79qcrQwL2Kbl">
            <rect transform="translate(0 0) rotate(0 1737.7574090616445 911.0335096967242)" width="3475.5148181232894" height="1822.067019393448">
          </rect>
        </clipPath>
  </defs>
  <rect x="0" y="0" width="3475.514818123289" height="1822.0670193934484" fill="#ffffff"></rect><g clip-path="url(#WaAJ9bPjR79qcrQwL2Kbl)"><g stroke-linecap="round" transform="translate(190.99583398332652 115.74358718434178) rotate(0 1535.8073266857818 776.010407896496)"><path d="M0 0 C1121.06 0, 2242.12 0, 3071.61 0 M0 0 C1133.63 0, 2267.26 0, 3071.61 0 M3071.61 0 C3071.61 445.92, 3071.61 891.83, 3071.61 1552.02 M3071.61 0 C3071.61 572.08, 3071.61 1144.17, 3071.61 1552.02 M3071.61 1552.02 C2208.12 1552.02, 1344.63 1552.02, 0 1552.02 M3071.61 1552.02 C2184.64 1552.02, 1297.67 1552.02, 0 1552.02 M0 1552.02 C0 1078.59, 0 605.16, 0 0 M0 1552.02 C0 1197.82, 0 843.62, 0 0" stroke="#1e1e1e" stroke-width="2" fill="none"></path></g></g><g clip-path="url(#WaAJ9bPjR79qcrQwL2Kbl)"><g stroke-linecap="round" transform="translate(404.93781231678986 689.6476184464946) rotate(0 44.830902099609375 47.48755902786388)"><path d="M89.66 47.49 C89.66 49.74, 89.51 52.02, 89.21 54.25 C88.9 56.48, 88.44 58.7, 87.85 60.87 C87.25 63.03, 86.49 65.17, 85.61 67.21 C84.73 69.26, 83.69 71.27, 82.55 73.16 C81.4 75.06, 80.1 76.88, 78.71 78.59 C77.32 80.29, 75.8 81.9, 74.19 83.38 C72.58 84.85, 70.86 86.22, 69.07 87.44 C67.28 88.65, 65.39 89.75, 63.45 90.68 C61.52 91.62, 59.5 92.42, 57.46 93.05 C55.42 93.69, 53.32 94.17, 51.21 94.49 C49.11 94.81, 46.96 94.98, 44.83 94.98 C42.7 94.98, 40.56 94.81, 38.45 94.49 C36.35 94.17, 34.24 93.69, 32.2 93.05 C30.16 92.42, 28.14 91.62, 26.21 90.68 C24.27 89.75, 22.38 88.65, 20.59 87.44 C18.8 86.22, 17.08 84.85, 15.47 83.38 C13.87 81.9, 12.34 80.29, 10.95 78.59 C9.56 76.88, 8.27 75.06, 7.12 73.16 C5.97 71.27, 4.93 69.26, 4.05 67.21 C3.17 65.17, 2.42 63.03, 1.82 60.87 C1.22 58.7, 0.76 56.48, 0.46 54.25 C0.15 52.02, 0 49.74, 0 47.49 C0 45.23, 0.15 42.96, 0.46 40.73 C0.76 38.5, 1.22 36.27, 1.82 34.11 C2.42 31.95, 3.17 29.81, 4.05 27.76 C4.93 25.71, 5.97 23.71, 7.12 21.81 C8.27 19.92, 9.56 18.09, 10.95 16.39 C12.34 14.69, 13.87 13.07, 15.47 11.6 C17.08 10.12, 18.8 8.76, 20.59 7.54 C22.38 6.32, 24.27 5.23, 26.21 4.29 C28.14 3.36, 30.16 2.56, 32.2 1.92 C34.24 1.29, 36.35 0.8, 38.45 0.48 C40.56 0.16, 42.7 0, 44.83 0 C46.96 0, 49.11 0.16, 51.21 0.48 C53.32 0.8, 55.42 1.29, 57.46 1.92 C59.5 2.56, 61.52 3.36, 63.45 4.29 C65.39 5.23, 67.28 6.32, 69.07 7.54 C70.86 8.76, 72.58 10.12, 74.19 11.6 C75.8 13.07, 77.32 14.69, 78.71 16.39 C80.1 18.09, 81.4 19.92, 82.55 21.81 C83.69 23.71, 84.73 25.71, 85.61 27.76 C86.49 29.81, 87.25 31.95, 87.85 34.11 C88.44 36.27, 88.9 38.5, 89.21 40.73 C89.51 42.96, 89.59 46.36, 89.66 47.49 C89.74 48.61, 89.74 46.36, 89.66 47.49" stroke="none" stroke-width="0" fill="#0c37a2"></path><path d="M89.66 47.49 C89.66 49.74, 89.51 52.02, 89.21 54.25 C88.9 56.48, 88.44 58.7, 87.85 60.87 C87.25 63.03, 86.49 65.17, 85.61 67.21 C84.73 69.26, 83.69 71.27, 82.55 73.16 C81.4 75.06, 80.1 76.88, 78.71 78.59 C77.32 80.29, 75.8 81.9, 74.19 83.38 C72.58 84.85, 70.86 86.22, 69.07 87.44 C67.28 88.65, 65.39 89.75, 63.45 90.68 C61.52 91.62, 59.5 92.42, 57.46 93.05 C55.42 93.69, 53.32 94.17, 51.21 94.49 C49.11 94.81, 46.96 94.98, 44.83 94.98 C42.7 94.98, 40.56 94.81, 38.45 94.49 C36.35 94.17, 34.24 93.69, 32.2 93.05 C30.16 92.42, 28.14 91.62, 26.21 90.68 C24.27 89.75, 22.38 88.65, 20.59 87.44 C18.8 86.22, 17.08 84.85, 15.47 83.38 C13.87 81.9, 12.34 80.29, 10.95 78.59 C9.56 76.88, 8.27 75.06, 7.12 73.16 C5.97 71.27, 4.93 69.26, 4.05 67.21 C3.17 65.17, 2.42 63.03, 1.82 60.87 C1.22 58.7, 0.76 56.48, 0.46 54.25 C0.15 52.02, 0 49.74, 0 47.49 C0 45.23, 0.15 42.96, 0.46 40.73 C0.76 38.5, 1.22 36.27, 1.82 34.11 C2.42 31.95, 3.17 29.81, 4.05 27.76 C4.93 25.71, 5.97 23.71, 7.12 21.81 C8.27 19.92, 9.56 18.09, 10.95 16.39 C12.34 14.69, 13.87 13.07, 15.47 11.6 C17.08 10.12, 18.8 8.76, 20.59 7.54 C22.38 6.32, 24.27 5.23, 26.21 4.29 C28.14 3.36, 30.16 2.56, 32.2 1.92 C34.24 1.29, 36.35 0.8, 38.45 0.48 C40.56 0.16, 42.7 0, 44.83 0 C46.96 0, 49.11 0.16, 51.21 0.48 C53.32 0.8, 55.42 1.29, 57.46 1.92 C59.5 2.56, 61.52 3.36, 63.45 4.29 C65.39 5.23, 67.28 6.32, 69.07 7.54 C70.86 8.76, 72.58 10.12, 74.19 11.6 C75.8 13.07, 77.32 14.69, 78.71 16.39 C80.1 18.09, 81.4 19.92, 82.55 21.81 C83.69 23.71, 84.73 25.71, 85.61 27.76 C86.49 29.81, 87.25 31.95, 87.85 34.11 C88.44 36.27, 88.9 38.5, 89.21 40.73 C89.51 42.96, 89.59 46.36, 89.66 47.49 C89.74 48.61, 89.74 46.36, 89.66 47.49" stroke="#0c37a2" stroke-width="1" fill="none"></path></g></g><g clip-path="url(#WaAJ9bPjR79qcrQwL2Kbl)"><g stroke-linecap="round" transform="translate(335.6760325316336 776.3707986360123) rotate(0 112.67050170898438 70.04611040837608)"><path d="M35.02 0 L190.32 0 L198.53 0.55 L205.64 2.19 L211.66 4.93 L216.59 8.76 L220.42 13.68 L223.15 19.7 L224.79 26.81 L225.34 105.07 L224.79 113.28 L223.15 120.39 L220.42 126.41 L216.59 131.34 L211.66 135.17 L205.64 137.9 L198.53 139.54 L190.32 140.09 L35.02 140.09 L26.81 139.54 L19.7 137.9 L13.68 135.17 L8.76 131.34 L4.93 126.41 L2.19 120.39 L0.55 113.28 L0 105.07 L0.55 26.81 L2.19 19.7 L4.93 13.68 L8.76 8.76 L13.68 4.93 L19.7 2.19 L26.81 0.55 L35.02 0" stroke="none" stroke-width="0" fill="#0c37a2"></path><path d="M35.02 0 M35.02 0 C85.27 0, 135.51 0, 190.32 0 M35.02 0 C71.64 0, 108.25 0, 190.32 0 M190.32 0 C213.67 0, 225.34 11.67, 225.34 35.02 M190.32 0 C213.67 0, 225.34 11.67, 225.34 35.02 M225.34 35.02 C225.34 52.98, 225.34 70.93, 225.34 105.07 M225.34 35.02 C225.34 50.01, 225.34 64.99, 225.34 105.07 M225.34 105.07 C225.34 128.42, 213.67 140.09, 190.32 140.09 M225.34 105.07 C225.34 128.42, 213.67 140.09, 190.32 140.09 M190.32 140.09 C150.53 140.09, 110.74 140.09, 35.02 140.09 M190.32 140.09 C141.24 140.09, 92.16 140.09, 35.02 140.09 M35.02 140.09 C11.67 140.09, 0 128.42, 0 105.07 M35.02 140.09 C11.67 140.09, 0 128.42, 0 105.07 M0 105.07 C0 88.81, 0 72.55, 0 35.02 M0 105.07 C0 79.92, 0 54.77, 0 35.02 M0 35.02 C0 11.67, 11.67 0, 35.02 0 M0 35.02 C0 11.67, 11.67 0, 35.02 0" stroke="#0c37a2" stroke-width="1" fill="none"></path></g></g><g clip-path="url(#WaAJ9bPjR79qcrQwL2Kbl)"><g transform="translate(372.2469165308812 778.50448414109) rotate(0 76.171875 12)"><text x="76.171875" y="0" font-family="Cascadia, Segoe UI Emoji" font-size="20px" fill="#fff" text-anchor="middle" style="white-space: pre;" direction="ltr" dominant-baseline="text-before-edge">Business User</text></g></g><g clip-path="url(#WaAJ9bPjR79qcrQwL2Kbl)"><g transform="translate(400.44627260998277 804.8975569099412) rotate(0 46.875 12)"><text x="46.875" y="0" font-family="Cascadia, Segoe UI Emoji" font-size="20px" fill="#fff" text-anchor="middle" style="white-space: pre;" direction="ltr" dominant-baseline="text-before-edge">[person]</text></g></g><g clip-path="url(#WaAJ9bPjR79qcrQwL2Kbl)"><g transform="translate(341.0704809266008 846.228942255776) rotate(0 105.46875 36)"><text x="105.46875" y="0" font-family="Cascadia, Segoe UI Emoji" font-size="20px" fill="#fff" text-anchor="middle" style="white-space: pre;" direction="ltr" dominant-baseline="text-before-edge">A staff tasked</text><text x="105.46875" y="24" font-family="Cascadia, Segoe UI Emoji" font-size="20px" fill="#fff" text-anchor="middle" style="white-space: pre;" direction="ltr" dominant-baseline="text-before-edge">with operating the</text><text x="105.46875" y="48" font-family="Cascadia, Segoe UI Emoji" font-size="20px" fill="#fff" text-anchor="middle" style="white-space: pre;" direction="ltr" dominant-baseline="text-before-edge"> system</text></g></g><g clip-path="url(#WaAJ9bPjR79qcrQwL2Kbl)"><g stroke-linecap="round" transform="translate(792.1998440560164 210.14591572568315) rotate(0 800.7291655422932 631.9770416324504)"><path d="M0 0 C619.06 0, 1238.11 0, 1601.46 0 M1601.46 0 C1601.46 367.85, 1601.46 735.7, 1601.46 1263.95 M1601.46 1263.95 C1188.18 1263.95, 774.89 1263.95, 0 1263.95 M0 1263.95 C0 931.77, 0 599.58, 0 0" stroke="#1971c2" stroke-width="2.5" fill="none" stroke-dasharray="8 10"></path></g></g><g clip-path="url(#WaAJ9bPjR79qcrQwL2Kbl)"><g transform="translate(887.9154989934323 1359.5851636219977) rotate(0 179.296875 43.19999999999982)"><text x="0" y="0" font-family="Cascadia, Segoe UI Emoji" font-size="36px" fill="#1e1e1e" text-anchor="start" style="white-space: pre;" direction="ltr" dominant-baseline="text-before-edge">Low-Code Platform</text><text x="0" y="43.199999999999996" font-family="Cascadia, Segoe UI Emoji" font-size="36px" fill="#1e1e1e" text-anchor="start" style="white-space: pre;" direction="ltr" dominant-baseline="text-before-edge">[software system]</text></g></g><g clip-path="url(#WaAJ9bPjR79qcrQwL2Kbl)"><g stroke-linecap="round" transform="translate(995.8863765061706 762.0232463674511) rotate(0 145.75419872386374 84.76917833730977)"><path d="M0 0 L291.51 0 L291.51 169.54 L0 169.54" stroke="none" stroke-width="0" fill="#55b8f5"></path><path d="M0 0 C61.11 0, 122.23 0, 291.51 0 M0 0 C90.02 0, 180.05 0, 291.51 0 M291.51 0 C291.51 48.37, 291.51 96.73, 291.51 169.54 M291.51 0 C291.51 66.52, 291.51 133.03, 291.51 169.54 M291.51 169.54 C182.61 169.54, 73.72 169.54, 0 169.54 M291.51 169.54 C217.6 169.54, 143.68 169.54, 0 169.54 M0 169.54 C0 135.25, 0 100.96, 0 0 M0 169.54 C0 128.73, 0 87.91, 0 0" stroke="#343a40" stroke-width="1" fill="none"></path></g></g><g clip-path="url(#WaAJ9bPjR79qcrQwL2Kbl)"><g stroke-linecap="round" transform="translate(1070.0688536403704 775.8444083912618) rotate(0 98.49144489131504 8.940945945392741)"><path d="M4.47 0 L192.51 0 L195.87 1.12 L196.7 2.51 L196.98 13.41 L195.87 16.76 L192.51 17.88 L4.47 17.88 L1.12 16.76 L0 13.41 L0.28 2.51 L1.12 1.12 L4.47 0" stroke="none" stroke-width="0" fill="#55b8f5"></path><path d="M4.47 0 M4.47 0 C67.65 0, 130.83 0, 192.51 0 M4.47 0 C67.89 0, 131.3 0, 192.51 0 M192.51 0 C195.49 0, 196.98 1.49, 196.98 4.47 M192.51 0 C195.49 0, 196.98 1.49, 196.98 4.47 M196.98 4.47 C196.98 7.36, 196.98 10.26, 196.98 13.41 M196.98 4.47 C196.98 6.58, 196.98 8.69, 196.98 13.41 M196.98 13.41 C196.98 16.39, 195.49 17.88, 192.51 17.88 M196.98 13.41 C196.98 16.39, 195.49 17.88, 192.51 17.88 M192.51 17.88 C144.32 17.88, 96.12 17.88, 4.47 17.88 M192.51 17.88 C152.29 17.88, 112.06 17.88, 4.47 17.88 M4.47 17.88 C1.49 17.88, 0 16.39, 0 13.41 M4.47 17.88 C1.49 17.88, 0 16.39, 0 13.41 M0 13.41 C0 11.12, 0 8.83, 0 4.47 M0 13.41 C0 10.59, 0 7.76, 0 4.47 M0 4.47 C0 1.49, 1.49 0, 4.47 0 M0 4.47 C0 1.49, 1.49 0, 4.47 0" stroke="#4c6ef5" stroke-width="1" fill="none"></path></g></g><g clip-path="url(#WaAJ9bPjR79qcrQwL2Kbl)"><g stroke-linecap="round" transform="translate(1014.0189233818692 807.8534296322614) rotate(0 127.68597198685347 54.99062912794079)"><path d="M0 0 L255.37 0 L255.37 109.98 L0 109.98" stroke="none" stroke-width="0" fill="#55b8f5"></path><path d="M0 0 C62.27 0, 124.54 0, 255.37 0 M0 0 C79.94 0, 159.88 0, 255.37 0 M255.37 0 C255.37 39.45, 255.37 78.89, 255.37 109.98 M255.37 0 C255.37 41.98, 255.37 83.95, 255.37 109.98 M255.37 109.98 C187.76 109.98, 120.14 109.98, 0 109.98 M255.37 109.98 C197.23 109.98, 139.1 109.98, 0 109.98 M0 109.98 C0 83.29, 0 56.6, 0 0 M0 109.98 C0 79.43, 0 48.87, 0 0" stroke="#4c6ef5" stroke-width="1" fill="none"></path></g></g><g clip-path="url(#WaAJ9bPjR79qcrQwL2Kbl)"><g stroke-linecap="round" transform="translate(1011.436365591062 779.4533339507107) rotate(0 8.052300695937447 8.052300695936992)"><path d="M16.1 8.05 C16.1 8.52, 16.06 8.99, 15.98 9.45 C15.9 9.91, 15.78 10.37, 15.62 10.81 C15.46 11.24, 15.26 11.67, 15.03 12.08 C14.79 12.48, 14.52 12.87, 14.22 13.23 C13.92 13.59, 13.59 13.92, 13.23 14.22 C12.87 14.52, 12.48 14.79, 12.08 15.03 C11.67 15.26, 11.24 15.46, 10.81 15.62 C10.37 15.78, 9.91 15.9, 9.45 15.98 C8.99 16.06, 8.52 16.1, 8.05 16.1 C7.59 16.1, 7.11 16.06, 6.65 15.98 C6.2 15.9, 5.74 15.78, 5.3 15.62 C4.86 15.46, 4.43 15.26, 4.03 15.03 C3.62 14.79, 3.23 14.52, 2.88 14.22 C2.52 13.92, 2.18 13.59, 1.88 13.23 C1.58 12.87, 1.31 12.48, 1.08 12.08 C0.85 11.67, 0.65 11.24, 0.49 10.81 C0.33 10.37, 0.2 9.91, 0.12 9.45 C0.04 8.99, 0 8.52, 0 8.05 C0 7.59, 0.04 7.11, 0.12 6.65 C0.2 6.2, 0.33 5.74, 0.49 5.3 C0.65 4.86, 0.85 4.43, 1.08 4.03 C1.31 3.62, 1.58 3.23, 1.88 2.88 C2.18 2.52, 2.52 2.18, 2.88 1.88 C3.23 1.58, 3.62 1.31, 4.03 1.08 C4.43 0.85, 4.86 0.65, 5.3 0.49 C5.74 0.33, 6.2 0.2, 6.65 0.12 C7.11 0.04, 7.59 0, 8.05 0 C8.52 0, 8.99 0.04, 9.45 0.12 C9.91 0.2, 10.37 0.33, 10.81 0.49 C11.24 0.65, 11.67 0.85, 12.08 1.08 C12.48 1.31, 12.87 1.58, 13.23 1.88 C13.59 2.18, 13.92 2.52, 14.22 2.88 C14.52 3.23, 14.79 3.62, 15.03 4.03 C15.26 4.43, 15.46 4.86, 15.62 5.3 C15.78 5.74, 15.9 6.2, 15.98 6.65 C16.06 7.11, 16.08 7.82, 16.1 8.05 C16.12 8.29, 16.12 7.82, 16.1 8.05" stroke="none" stroke-width="0" fill="#55b8f5"></path><path d="M16.1 8.05 C16.1 8.52, 16.06 8.99, 15.98 9.45 C15.9 9.91, 15.78 10.37, 15.62 10.81 C15.46 11.24, 15.26 11.67, 15.03 12.08 C14.79 12.48, 14.52 12.87, 14.22 13.23 C13.92 13.59, 13.59 13.92, 13.23 14.22 C12.87 14.52, 12.48 14.79, 12.08 15.03 C11.67 15.26, 11.24 15.46, 10.81 15.62 C10.37 15.78, 9.91 15.9, 9.45 15.98 C8.99 16.06, 8.52 16.1, 8.05 16.1 C7.59 16.1, 7.11 16.06, 6.65 15.98 C6.2 15.9, 5.74 15.78, 5.3 15.62 C4.86 15.46, 4.43 15.26, 4.03 15.03 C3.62 14.79, 3.23 14.52, 2.88 14.22 C2.52 13.92, 2.18 13.59, 1.88 13.23 C1.58 12.87, 1.31 12.48, 1.08 12.08 C0.85 11.67, 0.65 11.24, 0.49 10.81 C0.33 10.37, 0.2 9.91, 0.12 9.45 C0.04 8.99, 0 8.52, 0 8.05 C0 7.59, 0.04 7.11, 0.12 6.65 C0.2 6.2, 0.33 5.74, 0.49 5.3 C0.65 4.86, 0.85 4.43, 1.08 4.03 C1.31 3.62, 1.58 3.23, 1.88 2.88 C2.18 2.52, 2.52 2.18, 2.88 1.88 C3.23 1.58, 3.62 1.31, 4.03 1.08 C4.43 0.85, 4.86 0.65, 5.3 0.49 C5.74 0.33, 6.2 0.2, 6.65 0.12 C7.11 0.04, 7.59 0, 8.05 0 C8.52 0, 8.99 0.04, 9.45 0.12 C9.91 0.2, 10.37 0.33, 10.81 0.49 C11.24 0.65, 11.67 0.85, 12.08 1.08 C12.48 1.31, 12.87 1.58, 13.23 1.88 C13.59 2.18, 13.92 2.52, 14.22 2.88 C14.52 3.23, 14.79 3.62, 15.03 4.03 C15.26 4.43, 15.46 4.86, 15.62 5.3 C15.78 5.74, 15.9 6.2, 15.98 6.65 C16.06 7.11, 16.08 7.82, 16.1 8.05 C16.12 8.29, 16.12 7.82, 16.1 8.05" stroke="#4c6ef5" stroke-width="1" fill="none"></path></g></g><g clip-path="url(#WaAJ9bPjR79qcrQwL2Kbl)"><g stroke-linecap="round" transform="translate(1038.512240639513 778.0677709631182) rotate(0 8.052300695937447 8.052300695936992)"><path d="M16.1 8.05 C16.1 8.52, 16.06 8.99, 15.98 9.45 C15.9 9.91, 15.78 10.37, 15.62 10.81 C15.46 11.24, 15.26 11.67, 15.03 12.08 C14.79 12.48, 14.52 12.87, 14.22 13.23 C13.92 13.59, 13.59 13.92, 13.23 14.22 C12.87 14.52, 12.48 14.79, 12.08 15.03 C11.67 15.26, 11.24 15.46, 10.81 15.62 C10.37 15.78, 9.91 15.9, 9.45 15.98 C8.99 16.06, 8.52 16.1, 8.05 16.1 C7.59 16.1, 7.11 16.06, 6.65 15.98 C6.2 15.9, 5.74 15.78, 5.3 15.62 C4.86 15.46, 4.43 15.26, 4.03 15.03 C3.62 14.79, 3.23 14.52, 2.88 14.22 C2.52 13.92, 2.18 13.59, 1.88 13.23 C1.58 12.87, 1.31 12.48, 1.08 12.08 C0.85 11.67, 0.65 11.24, 0.49 10.81 C0.33 10.37, 0.2 9.91, 0.12 9.45 C0.04 8.99, 0 8.52, 0 8.05 C0 7.59, 0.04 7.11, 0.12 6.65 C0.2 6.2, 0.33 5.74, 0.49 5.3 C0.65 4.86, 0.85 4.43, 1.08 4.03 C1.31 3.62, 1.58 3.23, 1.88 2.88 C2.18 2.52, 2.52 2.18, 2.88 1.88 C3.23 1.58, 3.62 1.31, 4.03 1.08 C4.43 0.85, 4.86 0.65, 5.3 0.49 C5.74 0.33, 6.2 0.2, 6.65 0.12 C7.11 0.04, 7.59 0, 8.05 0 C8.52 0, 8.99 0.04, 9.45 0.12 C9.91 0.2, 10.37 0.33, 10.81 0.49 C11.24 0.65, 11.67 0.85, 12.08 1.08 C12.48 1.31, 12.87 1.58, 13.23 1.88 C13.59 2.18, 13.92 2.52, 14.22 2.88 C14.52 3.23, 14.79 3.62, 15.03 4.03 C15.26 4.43, 15.46 4.86, 15.62 5.3 C15.78 5.74, 15.9 6.2, 15.98 6.65 C16.06 7.11, 16.08 7.82, 16.1 8.05 C16.12 8.29, 16.12 7.82, 16.1 8.05" stroke="none" stroke-width="0" fill="#55b8f5"></path><path d="M16.1 8.05 C16.1 8.52, 16.06 8.99, 15.98 9.45 C15.9 9.91, 15.78 10.37, 15.62 10.81 C15.46 11.24, 15.26 11.67, 15.03 12.08 C14.79 12.48, 14.52 12.87, 14.22 13.23 C13.92 13.59, 13.59 13.92, 13.23 14.22 C12.87 14.52, 12.48 14.79, 12.08 15.03 C11.67 15.26, 11.24 15.46, 10.81 15.62 C10.37 15.78, 9.91 15.9, 9.45 15.98 C8.99 16.06, 8.52 16.1, 8.05 16.1 C7.59 16.1, 7.11 16.06, 6.65 15.98 C6.2 15.9, 5.74 15.78, 5.3 15.62 C4.86 15.46, 4.43 15.26, 4.03 15.03 C3.62 14.79, 3.23 14.52, 2.88 14.22 C2.52 13.92, 2.18 13.59, 1.88 13.23 C1.58 12.87, 1.31 12.48, 1.08 12.08 C0.85 11.67, 0.65 11.24, 0.49 10.81 C0.33 10.37, 0.2 9.91, 0.12 9.45 C0.04 8.99, 0 8.52, 0 8.05 C0 7.59, 0.04 7.11, 0.12 6.65 C0.2 6.2, 0.33 5.74, 0.49 5.3 C0.65 4.86, 0.85 4.43, 1.08 4.03 C1.31 3.62, 1.58 3.23, 1.88 2.88 C2.18 2.52, 2.52 2.18, 2.88 1.88 C3.23 1.58, 3.62 1.31, 4.03 1.08 C4.43 0.85, 4.86 0.65, 5.3 0.49 C5.74 0.33, 6.2 0.2, 6.65 0.12 C7.11 0.04, 7.59 0, 8.05 0 C8.52 0, 8.99 0.04, 9.45 0.12 C9.91 0.2, 10.37 0.33, 10.81 0.49 C11.24 0.65, 11.67 0.85, 12.08 1.08 C12.48 1.31, 12.87 1.58, 13.23 1.88 C13.59 2.18, 13.92 2.52, 14.22 2.88 C14.52 3.23, 14.79 3.62, 15.03 4.03 C15.26 4.43, 15.46 4.86, 15.62 5.3 C15.78 5.74, 15.9 6.2, 15.98 6.65 C16.06 7.11, 16.08 7.82, 16.1 8.05 C16.12 8.29, 16.12 7.82, 16.1 8.05" stroke="#4c6ef5" stroke-width="1" fill="none"></path></g></g><g clip-path="url(#WaAJ9bPjR79qcrQwL2Kbl)"><g transform="translate(1066.5400644319798 788.0698456623268) rotate(0 76.171875 12)"><text x="76.171875" y="0" font-family="Cascadia, Segoe UI Emoji" font-size="20px" fill="#fff" text-anchor="middle" style="white-space: pre;" direction="ltr" dominant-baseline="text-before-edge">Web-based SPA</text></g></g><g clip-path="url(#WaAJ9bPjR79qcrQwL2Kbl)"><g transform="translate(1057.3517761505318 832.0287341281728) rotate(0 83.7890625 8.583261303191648)"><text x="83.7890625" y="0" font-family="Cascadia, Segoe UI Emoji" font-size="14.30543550531915px" fill="#fff" text-anchor="middle" style="white-space: pre;" direction="ltr" dominant-baseline="text-before-edge">[container: ReactJS]</text></g></g><g clip-path="url(#WaAJ9bPjR79qcrQwL2Kbl)"><g transform="translate(1009.0096335053004 861.9774334841204) rotate(0 130.1015625 19.03883634868407)"><text x="130.1015625" y="0" font-family="Cascadia, Segoe UI Emoji" font-size="15.865696957236834px" fill="#fff" text-anchor="middle" style="white-space: pre;" direction="ltr" dominant-baseline="text-before-edge">Low-Code GUI for application</text><text x="130.1015625" y="19.0388363486842" font-family="Cascadia, Segoe UI Emoji" font-size="15.865696957236834px" fill="#fff" text-anchor="middle" style="white-space: pre;" direction="ltr" dominant-baseline="text-before-edge">building</text></g></g><g clip-path="url(#WaAJ9bPjR79qcrQwL2Kbl)"><g mask="url(#mask-H3JKNzSfZ9QjxlnQQhLfL)" stroke-linecap="round"><g transform="translate(585.3529460385871 844.0260395107989) rotate(0 196.92491596303626 1.2327043319337463)"><path d="M0 0 C148.26 0.93, 296.52 1.86, 393.85 2.47" stroke="#1e1e1e" stroke-width="2.5" fill="none" stroke-dasharray="8 10"></path></g><g transform="translate(585.3529460385871 844.0260395107989) rotate(0 196.92491596303626 1.2327043319337463)"><path d="M393.85 2.47 L380.22 8.72 L380.3 -3.96 L393.85 2.47" stroke="none" stroke-width="0" fill="#1e1e1e" fill-rule="evenodd"></path><path d="M393.85 2.47 C388.72 4.82, 383.59 7.17, 380.22 8.72 M380.22 8.72 C380.24 4.44, 380.27 0.17, 380.3 -3.96 M380.3 -3.96 C383.01 -2.67, 385.73 -1.38, 393.85 2.47 M393.85 2.47 C393.85 2.47, 393.85 2.47, 393.85 2.47" stroke="#1e1e1e" stroke-width="2.5" fill="none"></path></g></g><mask id="mask-H3JKNzSfZ9QjxlnQQhLfL"><rect x="0" y="0" fill="#fff" width="1079.2027779646596" height="946.4914481746664"></rect><rect x="659.2309870016234" y="809.2587438427327" fill="#000" width="246.09375" height="72" opacity="1"></rect></mask></g><g clip-path="url(#WaAJ9bPjR79qcrQwL2Kbl)"><g transform="translate(659.2309870016234 809.2587438427327) rotate(0 123.046875 36)"><text x="123.046875" y="0" font-family="Cascadia, Segoe UI Emoji" font-size="20px" fill="#1e1e1e" text-anchor="middle" style="white-space: pre;" direction="ltr" dominant-baseline="text-before-edge">View, Create GUI, </text><text x="123.046875" y="24" font-family="Cascadia, Segoe UI Emoji" font-size="20px" fill="#1e1e1e" text-anchor="middle" style="white-space: pre;" direction="ltr" dominant-baseline="text-before-edge">Workflows &amp; Generate </text><text x="123.046875" y="48" font-family="Cascadia, Segoe UI Emoji" font-size="20px" fill="#1e1e1e" text-anchor="middle" style="white-space: pre;" direction="ltr" dominant-baseline="text-before-edge">Application using</text></g></g><g clip-path="url(#WaAJ9bPjR79qcrQwL2Kbl)"><g stroke-linecap="round"><g transform="translate(1350.1381687476533 1263.418785434852) rotate(0 127.51981648073433 61.668836349900175)" fill-rule="evenodd"><path d="M0 0 L0.84 110.91 L0.43 121.14 L-0.33 123.81 L-0.7 123.19 L3.7 126.76 L21.6 130.28 L58.98 133.61 L136.38 135.05 L194.36 133.64 L223.38 131.58 L249.62 127.26 L254.8 125.24 L255.16 122.63 L255.94 123.71 L255.63 -1.68 L255.37 -0.5 L253.95 -0.44 L247.81 -3.58 L237.51 -5.89 L215.08 -8.35 L123.98 -11.7 L90.53 -11.41 L60.72 -10.12 L32.58 -7.63 L5.2 -3.42 L-0.76 0.26 L0 0" stroke="none" stroke-width="0" fill="#55b8f5" fill-rule="evenodd"></path><path d="M0 0 C0.14 18.48, 0.84 90.32, 0.84 110.91 C0.85 131.5, -2.02 120.52, 0.04 123.53 C2.1 126.55, 3.37 127.31, 13.19 128.99 C23.01 130.67, 38.45 132.6, 58.98 133.61 C79.51 134.62, 111.15 135.19, 136.38 135.05 C161.6 134.9, 191.46 134.05, 210.33 132.75 C229.2 131.45, 242.15 128.95, 249.62 127.26 C257.09 125.57, 254.11 125.1, 255.16 122.63 C256.22 120.17, 255.91 131.35, 255.94 112.47 C255.97 93.58, 255.66 28.12, 255.33 9.3 C255 -9.51, 256.92 2.09, 253.95 -0.44 C250.98 -2.97, 246.02 -4.46, 237.51 -5.89 C229 -7.32, 221.81 -8.08, 202.88 -9.04 C183.96 -10.01, 147.67 -11.52, 123.98 -11.7 C100.28 -11.88, 79.55 -11.27, 60.72 -10.12 C41.88 -8.96, 21.1 -6.42, 10.96 -4.75 C0.82 -3.07, 1.69 -0.86, -0.14 -0.07 C-1.97 0.72, -0.02 -0.01, 0 0 M0 0 C0.14 18.48, 0.84 90.32, 0.84 110.91 C0.85 131.5, -2.02 120.52, 0.04 123.53 C2.1 126.55, 3.37 127.31, 13.19 128.99 C23.01 130.67, 38.45 132.6, 58.98 133.61 C79.51 134.62, 111.15 135.19, 136.38 135.05 C161.6 134.9, 191.46 134.05, 210.33 132.75 C229.2 131.45, 242.15 128.95, 249.62 127.26 C257.09 125.57, 254.11 125.1, 255.16 122.63 C256.22 120.17, 255.91 131.35, 255.94 112.47 C255.97 93.58, 255.66 28.12, 255.33 9.3 C255 -9.51, 256.92 2.09, 253.95 -0.44 C250.98 -2.97, 246.02 -4.46, 237.51 -5.89 C229 -7.32, 221.81 -8.08, 202.88 -9.04 C183.96 -10.01, 147.67 -11.52, 123.98 -11.7 C100.28 -11.88, 79.55 -11.27, 60.72 -10.12 C41.88 -8.96, 21.1 -6.42, 10.96 -4.75 C0.82 -3.07, 1.69 -0.86, -0.14 -0.07 C-1.97 0.72, -0.02 -0.01, 0 0" stroke="#495057" stroke-width="1" fill="none"></path></g></g><mask></mask></g><g clip-path="url(#WaAJ9bPjR79qcrQwL2Kbl)"><g stroke-linecap="round" transform="translate(1352.8255765380072 1254.659710970308) rotate(0 124.36065698837592 10.298999125219325)"><path d="M248.72 10.3 C248.72 10.66, 248.49 11.02, 248.04 11.38 C247.59 11.73, 246.9 12.09, 246 12.44 C245.1 12.79, 243.97 13.14, 242.63 13.48 C241.3 13.82, 239.73 14.16, 237.97 14.49 C236.21 14.82, 234.23 15.14, 232.06 15.45 C229.89 15.76, 227.52 16.06, 224.97 16.35 C222.42 16.64, 219.68 16.92, 216.78 17.19 C213.88 17.46, 210.79 17.71, 207.57 17.95 C204.35 18.19, 200.96 18.42, 197.46 18.63 C193.95 18.84, 190.29 19.04, 186.54 19.22 C182.79 19.4, 178.9 19.56, 174.94 19.71 C170.98 19.85, 166.91 19.98, 162.79 20.09 C158.67 20.2, 154.46 20.3, 150.22 20.37 C145.98 20.45, 141.67 20.5, 137.36 20.54 C133.05 20.58, 128.69 20.6, 124.36 20.6 C120.03 20.6, 115.67 20.58, 111.36 20.54 C107.05 20.5, 102.74 20.45, 98.5 20.37 C94.27 20.3, 90.05 20.2, 85.93 20.09 C81.81 19.98, 77.74 19.85, 73.78 19.71 C69.82 19.56, 65.93 19.4, 62.18 19.22 C58.43 19.04, 54.77 18.84, 51.26 18.63 C47.76 18.42, 44.37 18.19, 41.15 17.95 C37.93 17.71, 34.84 17.46, 31.94 17.19 C29.04 16.92, 26.3 16.64, 23.75 16.35 C21.2 16.06, 18.83 15.76, 16.66 15.45 C14.49 15.14, 12.51 14.82, 10.75 14.49 C8.99 14.16, 7.43 13.82, 6.09 13.48 C4.75 13.14, 3.62 12.79, 2.72 12.44 C1.82 12.09, 1.13 11.73, 0.68 11.38 C0.23 11.02, 0 10.66, 0 10.3 C0 9.94, 0.23 9.58, 0.68 9.22 C1.13 8.87, 1.82 8.51, 2.72 8.16 C3.62 7.81, 4.75 7.46, 6.09 7.12 C7.43 6.78, 8.99 6.44, 10.75 6.11 C12.51 5.78, 14.49 5.46, 16.66 5.15 C18.83 4.84, 21.2 4.54, 23.75 4.25 C26.3 3.96, 29.04 3.67, 31.94 3.41 C34.84 3.14, 37.93 2.89, 41.15 2.65 C44.37 2.41, 47.76 2.18, 51.26 1.97 C54.77 1.76, 58.43 1.56, 62.18 1.38 C65.93 1.2, 69.82 1.04, 73.78 0.89 C77.74 0.74, 81.81 0.61, 85.93 0.5 C90.05 0.39, 94.27 0.3, 98.5 0.23 C102.74 0.15, 107.05 0.09, 111.36 0.06 C115.67 0.02, 120.03 0, 124.36 0 C128.69 0, 133.05 0.02, 137.36 0.06 C141.67 0.09, 145.98 0.15, 150.22 0.23 C154.46 0.3, 158.67 0.39, 162.79 0.5 C166.91 0.61, 170.98 0.74, 174.94 0.89 C178.9 1.04, 182.79 1.2, 186.54 1.38 C190.29 1.56, 193.95 1.76, 197.46 1.97 C200.96 2.18, 204.35 2.41, 207.57 2.65 C210.79 2.89, 213.88 3.14, 216.78 3.41 C219.68 3.67, 222.42 3.96, 224.97 4.25 C227.52 4.54, 229.89 4.84, 232.06 5.15 C234.23 5.46, 236.21 5.78, 237.97 6.11 C239.73 6.44, 241.3 6.78, 242.63 7.12 C243.97 7.46, 245.1 7.81, 246 8.16 C246.9 8.51, 247.59 8.87, 248.04 9.22 C248.49 9.58, 248.61 10.12, 248.72 10.3 C248.83 10.48, 248.83 10.12, 248.72 10.3" stroke="none" stroke-width="0" fill="#55b8f5"></path><path d="M248.72 10.3 C248.72 10.66, 248.49 11.02, 248.04 11.38 C247.59 11.73, 246.9 12.09, 246 12.44 C245.1 12.79, 243.97 13.14, 242.63 13.48 C241.3 13.82, 239.73 14.16, 237.97 14.49 C236.21 14.82, 234.23 15.14, 232.06 15.45 C229.89 15.76, 227.52 16.06, 224.97 16.35 C222.42 16.64, 219.68 16.92, 216.78 17.19 C213.88 17.46, 210.79 17.71, 207.57 17.95 C204.35 18.19, 200.96 18.42, 197.46 18.63 C193.95 18.84, 190.29 19.04, 186.54 19.22 C182.79 19.4, 178.9 19.56, 174.94 19.71 C170.98 19.85, 166.91 19.98, 162.79 20.09 C158.67 20.2, 154.46 20.3, 150.22 20.37 C145.98 20.45, 141.67 20.5, 137.36 20.54 C133.05 20.58, 128.69 20.6, 124.36 20.6 C120.03 20.6, 115.67 20.58, 111.36 20.54 C107.05 20.5, 102.74 20.45, 98.5 20.37 C94.27 20.3, 90.05 20.2, 85.93 20.09 C81.81 19.98, 77.74 19.85, 73.78 19.71 C69.82 19.56, 65.93 19.4, 62.18 19.22 C58.43 19.04, 54.77 18.84, 51.26 18.63 C47.76 18.42, 44.37 18.19, 41.15 17.95 C37.93 17.71, 34.84 17.46, 31.94 17.19 C29.04 16.92, 26.3 16.64, 23.75 16.35 C21.2 16.06, 18.83 15.76, 16.66 15.45 C14.49 15.14, 12.51 14.82, 10.75 14.49 C8.99 14.16, 7.43 13.82, 6.09 13.48 C4.75 13.14, 3.62 12.79, 2.72 12.44 C1.82 12.09, 1.13 11.73, 0.68 11.38 C0.23 11.02, 0 10.66, 0 10.3 C0 9.94, 0.23 9.58, 0.68 9.22 C1.13 8.87, 1.82 8.51, 2.72 8.16 C3.62 7.81, 4.75 7.46, 6.09 7.12 C7.43 6.78, 8.99 6.44, 10.75 6.11 C12.51 5.78, 14.49 5.46, 16.66 5.15 C18.83 4.84, 21.2 4.54, 23.75 4.25 C26.3 3.96, 29.04 3.67, 31.94 3.41 C34.84 3.14, 37.93 2.89, 41.15 2.65 C44.37 2.41, 47.76 2.18, 51.26 1.97 C54.77 1.76, 58.43 1.56, 62.18 1.38 C65.93 1.2, 69.82 1.04, 73.78 0.89 C77.74 0.74, 81.81 0.61, 85.93 0.5 C90.05 0.39, 94.27 0.3, 98.5 0.23 C102.74 0.15, 107.05 0.09, 111.36 0.06 C115.67 0.02, 120.03 0, 124.36 0 C128.69 0, 133.05 0.02, 137.36 0.06 C141.67 0.09, 145.98 0.15, 150.22 0.23 C154.46 0.3, 158.67 0.39, 162.79 0.5 C166.91 0.61, 170.98 0.74, 174.94 0.89 C178.9 1.04, 182.79 1.2, 186.54 1.38 C190.29 1.56, 193.95 1.76, 197.46 1.97 C200.96 2.18, 204.35 2.41, 207.57 2.65 C210.79 2.89, 213.88 3.14, 216.78 3.41 C219.68 3.67, 222.42 3.96, 224.97 4.25 C227.52 4.54, 229.89 4.84, 232.06 5.15 C234.23 5.46, 236.21 5.78, 237.97 6.11 C239.73 6.44, 241.3 6.78, 242.63 7.12 C243.97 7.46, 245.1 7.81, 246 8.16 C246.9 8.51, 247.59 8.87, 248.04 9.22 C248.49 9.58, 248.61 10.12, 248.72 10.3 C248.83 10.48, 248.83 10.12, 248.72 10.3" stroke="#1864ab" stroke-width="1" fill="none"></path></g></g><g clip-path="url(#WaAJ9bPjR79qcrQwL2Kbl)"><g transform="translate(1403.715097932667 1285.2514831127992) rotate(0 76.171875 12)"><text x="0" y="0" font-family="Cascadia, Segoe UI Emoji" font-size="20px" fill="#ffffff" text-anchor="start" style="white-space: pre;" direction="ltr" dominant-baseline="text-before-edge">User Database</text></g></g><g clip-path="url(#WaAJ9bPjR79qcrQwL2Kbl)"><g transform="translate(1372.3939086129285 1314.7871033521178) rotate(0 107.8125 9.599999999999909)"><text x="107.8125" y="0" font-family="Cascadia, Segoe UI Emoji" font-size="16px" fill="#fff" text-anchor="middle" style="white-space: pre;" direction="ltr" dominant-baseline="text-before-edge">[container: PostgreSQL]</text></g></g><g clip-path="url(#WaAJ9bPjR79qcrQwL2Kbl)"><g transform="translate(1406.8545687786536 1355.272256195568) rotate(0 69.697265625 9.519418174342263)"><text x="0" y="0" font-family="Cascadia, Segoe UI Emoji" font-size="15.865696957236834px" fill="#fff" text-anchor="start" style="white-space: pre;" direction="ltr" dominant-baseline="text-before-edge">What it stores?</text></g></g><g clip-path="url(#WaAJ9bPjR79qcrQwL2Kbl)"><g mask="url(#mask-XWwKrHN9MDoqIsZ6E9dLG)" stroke-linecap="round"><g transform="translate(1312.1114414681433 851.8326829164698) rotate(0 130.76798913057974 -75.74310934825508)"><path d="M0 0 C58.48 -33.87, 116.96 -67.74, 261.54 -151.49 M0 0 C78.36 -45.39, 156.73 -90.78, 261.54 -151.49" stroke="#1e1e1e" stroke-width="2" fill="none"></path></g><g transform="translate(1312.1114414681433 851.8326829164698) rotate(0 130.76798913057974 -75.74310934825508)"><path d="M261.54 -151.49 L252.95 -139.19 L246.59 -150.16 L261.54 -151.49" stroke="none" stroke-width="0" fill="#1e1e1e" fill-rule="evenodd"></path><path d="M261.54 -151.49 C259.62 -148.74, 257.7 -145.99, 252.95 -139.19 M261.54 -151.49 C258.96 -147.8, 256.39 -144.12, 252.95 -139.19 M252.95 -139.19 C251.55 -141.61, 250.15 -144.02, 246.59 -150.16 M252.95 -139.19 C251.25 -142.12, 249.55 -145.05, 246.59 -150.16 M246.59 -150.16 C251.26 -150.57, 255.93 -150.99, 261.54 -151.49 M246.59 -150.16 C252.05 -150.64, 257.51 -151.13, 261.54 -151.49 M261.54 -151.49 C261.54 -151.49, 261.54 -151.49, 261.54 -151.49 M261.54 -151.49 C261.54 -151.49, 261.54 -151.49, 261.54 -151.49" stroke="#1e1e1e" stroke-width="2" fill="none"></path></g></g><mask id="mask-XWwKrHN9MDoqIsZ6E9dLG"><rect x="0" y="0" fill="#fff" width="1673.6474197293028" height="1103.31890161298"></rect><rect x="1349.129430598723" y="752.0895735682143" fill="#000" width="187.5" height="48" opacity="1"></rect></mask></g><g clip-path="url(#WaAJ9bPjR79qcrQwL2Kbl)"><g transform="translate(1349.129430598723 752.0895735682143) rotate(0 93.75 24.000000000000455)"><text x="93.75" y="0" font-family="Cascadia, Segoe UI Emoji" font-size="20px" fill="#1e1e1e" text-anchor="middle" style="white-space: pre;" direction="ltr" dominant-baseline="text-before-edge">Make requests to</text><text x="93.75" y="24" font-family="Cascadia, Segoe UI Emoji" font-size="20px" fill="#1e1e1e" text-anchor="middle" style="white-space: pre;" direction="ltr" dominant-baseline="text-before-edge">[HTTPS/JSON]</text></g></g><g clip-path="url(#WaAJ9bPjR79qcrQwL2Kbl)"><g mask="url(#mask-p37TBg6l1_jTst-gek8w8)" stroke-linecap="round"><g transform="translate(1657.719628229579 1139.254763616559) rotate(0 -53.619255739859 52.72230329569402)"><path d="M0 0 C-35.91 35.31, -71.82 70.62, -107.24 105.44 M0 0 C-34.2 33.62, -68.39 67.25, -107.24 105.44" stroke="#1e1e1e" stroke-width="2" fill="none"></path></g><g transform="translate(1657.719628229579 1139.254763616559) rotate(0 -53.619255739859 52.72230329569402)"><path d="M-107.24 105.44 L-101.99 91.39 L-93.1 100.43 L-107.24 105.44" stroke="none" stroke-width="0" fill="#1e1e1e" fill-rule="evenodd"></path><path d="M-107.24 105.44 C-105.48 100.74, -103.72 96.03, -101.99 91.39 M-107.24 105.44 C-105.56 100.96, -103.89 96.48, -101.99 91.39 M-101.99 91.39 C-98.86 94.57, -95.73 97.76, -93.1 100.43 M-101.99 91.39 C-98.51 94.93, -95.03 98.47, -93.1 100.43 M-93.1 100.43 C-97.04 101.83, -100.98 103.23, -107.24 105.44 M-93.1 100.43 C-97.1 101.85, -101.11 103.27, -107.24 105.44 M-107.24 105.44 C-107.24 105.44, -107.24 105.44, -107.24 105.44 M-107.24 105.44 C-107.24 105.44, -107.24 105.44, -107.24 105.44" stroke="#1e1e1e" stroke-width="2" fill="none"></path></g></g><mask id="mask-p37TBg6l1_jTst-gek8w8"><rect x="0" y="0" fill="#fff" width="1864.958139709297" height="1344.6993702079471"></rect><rect x="1498.63162248972" y="1167.9770669122518" fill="#000" width="210.9375" height="48" opacity="1"></rect></mask></g><g clip-path="url(#WaAJ9bPjR79qcrQwL2Kbl)"><g transform="translate(1498.63162248972 1167.9770669122527) rotate(0 105.46875 24.000000000000455)"><text x="105.46875" y="0" font-family="Cascadia, Segoe UI Emoji" font-size="20px" fill="#1e1e1e" text-anchor="middle" style="white-space: pre;" direction="ltr" dominant-baseline="text-before-edge">Read/write data to</text><text x="105.46875" y="24" font-family="Cascadia, Segoe UI Emoji" font-size="20px" fill="#1e1e1e" text-anchor="middle" style="white-space: pre;" direction="ltr" dominant-baseline="text-before-edge">[SQL/TCP]</text></g></g><g clip-path="url(#WaAJ9bPjR79qcrQwL2Kbl)"><g mask="url(#mask-naa8QXbEsCzNUYHY3M0wx)" stroke-linecap="round"><g transform="translate(2276.4423328654175 380.11991571605995) rotate(0 174.4560102795367 0.710101791049965)"><path d="M0 0 C133.51 0.54, 267.02 1.09, 348.91 1.42" stroke="#1e1e1e" stroke-width="2.5" fill="none" stroke-dasharray="8 10"></path></g><g transform="translate(2276.4423328654175 380.11991571605995) rotate(0 174.4560102795367 0.710101791049965)"><path d="M348.91 1.42 L335.29 7.7 L335.34 -4.97 L348.91 1.42" stroke="none" stroke-width="0" fill="#1e1e1e" fill-rule="evenodd"></path><path d="M348.91 1.42 C343.7 3.82, 338.49 6.23, 335.29 7.7 M335.29 7.7 C335.31 3.99, 335.32 0.28, 335.34 -4.97 M335.34 -4.97 C339.89 -2.83, 344.44 -0.69, 348.91 1.42 M348.91 1.42 C348.91 1.42, 348.91 1.42, 348.91 1.42" stroke="#1e1e1e" stroke-width="2.5" fill="none"></path></g></g><mask id="mask-naa8QXbEsCzNUYHY3M0wx"><rect x="0" y="0" fill="#fff" width="2725.354353424491" height="481.5401192981599"></rect><rect x="2339.570218144954" y="356.8300175071099" fill="#000" width="222.65625" height="48" opacity="1"></rect></mask></g><g clip-path="url(#WaAJ9bPjR79qcrQwL2Kbl)"><g transform="translate(2339.570218144954 356.8300175071099) rotate(0 111.328125 24)"><text x="111.328125" y="0" font-family="Cascadia, Segoe UI Emoji" font-size="20px" fill="#1e1e1e" text-anchor="middle" style="white-space: pre;" direction="ltr" dominant-baseline="text-before-edge">Exchange data with</text><text x="111.328125" y="24" font-family="Cascadia, Segoe UI Emoji" font-size="20px" fill="#1e1e1e" text-anchor="middle" style="white-space: pre;" direction="ltr" dominant-baseline="text-before-edge">[HTTPS/Pub-Sub/...]</text></g></g><g clip-path="url(#WaAJ9bPjR79qcrQwL2Kbl)"><g mask="url(#mask-imo7rM2TmK6bZaIZxHyh2)" stroke-linecap="round"><g transform="translate(2201.346529412909 1307.7072731186408) rotate(0 115.68389885801389 0.8220618615373496)"><path d="M0 0 C86.31 0.61, 172.61 1.23, 231.37 1.64" stroke="#1e1e1e" stroke-width="2.5" fill="none" stroke-dasharray="8 10"></path></g><g transform="translate(2201.346529412909 1307.7072731186408) rotate(0 115.68389885801389 0.8220618615373496)"><path d="M231.37 1.64 L217.73 7.89 L217.82 -4.79 L231.37 1.64" stroke="none" stroke-width="0" fill="#1e1e1e" fill-rule="evenodd"></path><path d="M231.37 1.64 C226.28 3.97, 221.19 6.3, 217.73 7.89 M217.73 7.89 C217.75 5.02, 217.77 2.16, 217.82 -4.79 M217.82 -4.79 C221.61 -2.99, 225.41 -1.19, 231.37 1.64 M231.37 1.64 C231.37 1.64, 231.37 1.64, 231.37 1.64" stroke="#1e1e1e" stroke-width="2.5" fill="none"></path></g></g><mask id="mask-imo7rM2TmK6bZaIZxHyh2"><rect x="0" y="0" fill="#fff" width="2532.714327128937" height="1409.3513968417155"></rect><rect x="2223.280428270924" y="1284.5293349801777" fill="#000" width="187.5" height="48" opacity="1"></rect></mask></g><g clip-path="url(#WaAJ9bPjR79qcrQwL2Kbl)"><g transform="translate(2223.280428270924 1284.5293349801777) rotate(0 93.74999999999909 23.999999999999545)"><text x="93.75" y="0" font-family="Cascadia, Segoe UI Emoji" font-size="20px" fill="#343a40" text-anchor="middle" style="white-space: pre;" direction="ltr" dominant-baseline="text-before-edge">Make requests to</text><text x="93.75" y="24" font-family="Cascadia, Segoe UI Emoji" font-size="20px" fill="#343a40" text-anchor="middle" style="white-space: pre;" direction="ltr" dominant-baseline="text-before-edge">[HTTPS/JSON]</text></g></g><g clip-path="url(#WaAJ9bPjR79qcrQwL2Kbl)"><g stroke-linecap="round" transform="translate(2462.576936207619 1234.3310219551859) rotate(0 140.1255269926114 69.5)"><path d="M0 0 L280.25 0 L280.25 139 L0 139" stroke="none" stroke-width="0" fill="#868e96"></path><path d="M0 0 C87.46 0, 174.93 0, 280.25 0 M0 0 C94.9 0, 189.81 0, 280.25 0 M280.25 0 C280.25 53.22, 280.25 106.44, 280.25 139 M280.25 0 C280.25 45.41, 280.25 90.83, 280.25 139 M280.25 139 C174.72 139, 69.19 139, 0 139 M280.25 139 C179.36 139, 78.47 139, 0 139 M0 139 C0 90.33, 0 41.65, 0 0 M0 139 C0 100.54, 0 62.09, 0 0" stroke="#000000" stroke-width="1" fill="none"></path></g></g><g clip-path="url(#WaAJ9bPjR79qcrQwL2Kbl)"><g transform="translate(2519.467632145819 1247.7752432344805) rotate(0 82.03125 12)"><text x="0" y="0" font-family="Cascadia, Segoe UI Emoji" font-size="20px" fill="#fff" text-anchor="start" style="white-space: pre;" direction="ltr" dominant-baseline="text-before-edge">CLoud Provider</text></g></g><g clip-path="url(#WaAJ9bPjR79qcrQwL2Kbl)"><g transform="translate(2521.591447810757 1286.2014722664308) rotate(0 79.6875 9.599999999999909)"><text x="79.6875" y="0" font-family="Cascadia, Segoe UI Emoji" font-size="16px" fill="#fff" text-anchor="middle" style="white-space: pre;" direction="ltr" dominant-baseline="text-before-edge">[software system]</text></g></g><g clip-path="url(#WaAJ9bPjR79qcrQwL2Kbl)"><g transform="translate(2473.6277672676642 1314.6517992955887) rotate(0 128.90625 24)"><text x="128.90625" y="0" font-family="Cascadia, Segoe UI Emoji" font-size="20px" fill="#fff" text-anchor="middle" style="white-space: pre;" direction="ltr" dominant-baseline="text-before-edge">Provide build &amp; deploy</text><text x="128.90625" y="24" font-family="Cascadia, Segoe UI Emoji" font-size="20px" fill="#fff" text-anchor="middle" style="white-space: pre;" direction="ltr" dominant-baseline="text-before-edge">automation.</text></g></g><g clip-path="url(#WaAJ9bPjR79qcrQwL2Kbl)"><g stroke-linecap="round" transform="translate(2679.5906293025164 318.54705977050617) rotate(0 140.1255269926114 69.5)"><path d="M0 0 L280.25 0 L280.25 139 L0 139" stroke="none" stroke-width="0" fill="#868e96"></path><path d="M0 0 C110.47 0, 220.95 0, 280.25 0 M0 0 C60.57 0, 121.15 0, 280.25 0 M280.25 0 C280.25 36.08, 280.25 72.15, 280.25 139 M280.25 0 C280.25 32.72, 280.25 65.45, 280.25 139 M280.25 139 C213.35 139, 146.44 139, 0 139 M280.25 139 C199.51 139, 118.76 139, 0 139 M0 139 C0 86.54, 0 34.09, 0 0 M0 139 C0 86.19, 0 33.37, 0 0" stroke="#000000" stroke-width="1" fill="none"></path></g></g><g clip-path="url(#WaAJ9bPjR79qcrQwL2Kbl)"><g transform="translate(2704.505657859585 332.6118727096691) rotate(0 117.1875 12)"><text x="0" y="0" font-family="Cascadia, Segoe UI Emoji" font-size="20px" fill="#fff" text-anchor="start" style="white-space: pre;" direction="ltr" dominant-baseline="text-before-edge">External Data Source</text></g></g><g clip-path="url(#WaAJ9bPjR79qcrQwL2Kbl)"><g transform="translate(2738.3073156087685 368.08535828496133) rotate(0 79.6875 9.599999999999909)"><text x="79.6875" y="0" font-family="Cascadia, Segoe UI Emoji" font-size="16px" fill="#fff" text-anchor="middle" style="white-space: pre;" direction="ltr" dominant-baseline="text-before-edge">[software system]</text></g></g><g clip-path="url(#WaAJ9bPjR79qcrQwL2Kbl)"><g transform="translate(2693.691627265349 398.969673182306) rotate(0 117.1875 24)"><text x="117.1875" y="0" font-family="Cascadia, Segoe UI Emoji" font-size="20px" fill="#fff" text-anchor="middle" style="white-space: pre;" direction="ltr" dominant-baseline="text-before-edge">Provide data via API</text><text x="117.1875" y="24" font-family="Cascadia, Segoe UI Emoji" font-size="20px" fill="#fff" text-anchor="middle" style="white-space: pre;" direction="ltr" dominant-baseline="text-before-edge"> Endpoints, etc.</text></g></g><g clip-path="url(#WaAJ9bPjR79qcrQwL2Kbl)"><g stroke-linecap="round" transform="translate(2679.5906293025164 950.7085611420771) rotate(0 140.1255269926114 69.5)"><path d="M0 0 L280.25 0 L280.25 139 L0 139" stroke="none" stroke-width="0" fill="#868e96"></path><path d="M0 0 C63.24 0, 126.47 0, 280.25 0 M0 0 C59.75 0, 119.5 0, 280.25 0 M280.25 0 C280.25 50.8, 280.25 101.59, 280.25 139 M280.25 0 C280.25 53.6, 280.25 107.19, 280.25 139 M280.25 139 C214.84 139, 149.43 139, 0 139 M280.25 139 C208.44 139, 136.63 139, 0 139 M0 139 C0 91.28, 0 43.56, 0 0 M0 139 C0 85.53, 0 32.07, 0 0" stroke="#000000" stroke-width="1" fill="none"></path></g></g><g clip-path="url(#WaAJ9bPjR79qcrQwL2Kbl)"><g transform="translate(2757.9018348331647 965.0569774196356) rotate(0 64.453125 12)"><text x="0" y="0" font-family="Cascadia, Segoe UI Emoji" font-size="20px" fill="#fff" text-anchor="start" style="white-space: pre;" direction="ltr" dominant-baseline="text-before-edge">Web Browser</text></g></g><g clip-path="url(#WaAJ9bPjR79qcrQwL2Kbl)"><g transform="translate(2738.6051409056545 1004.1526073538553) rotate(0 79.6875 9.599999999999909)"><text x="79.6875" y="0" font-family="Cascadia, Segoe UI Emoji" font-size="16px" fill="#fff" text-anchor="middle" style="white-space: pre;" direction="ltr" dominant-baseline="text-before-edge">[software system]</text></g></g><g clip-path="url(#WaAJ9bPjR79qcrQwL2Kbl)"><g transform="translate(2711.6457431287545 1037.2808341425753) rotate(0 111.328125 12)"><text x="111.328125" y="0" font-family="Cascadia, Segoe UI Emoji" font-size="20px" fill="#fff" text-anchor="middle" style="white-space: pre;" direction="ltr" dominant-baseline="text-before-edge">Desktop web browser</text></g></g><g clip-path="url(#WaAJ9bPjR79qcrQwL2Kbl)"><g stroke-linecap="round" transform="translate(242.91215330358136 157.1810768412006) rotate(0 1484.067546160778 730.7328870846654)"><path d="M0 0 C854.82 0, 1709.64 0, 2968.14 0 M2968.14 0 C2968.14 354.87, 2968.14 709.75, 2968.14 1461.47 M2968.14 1461.47 C2231.07 1461.47, 1494.01 1461.47, 0 1461.47 M0 1461.47 C0 1102.81, 0 744.14, 0 0" stroke="#343a40" stroke-width="2.5" fill="none" stroke-dasharray="8 10"></path></g></g><g clip-path="url(#WaAJ9bPjR79qcrQwL2Kbl)"><g transform="translate(280.3855168213777 1540.7601640676176) rotate(0 390.234375 21.59999999999991)"><text x="0" y="0" font-family="Cascadia, Segoe UI Emoji" font-size="36px" fill="#343a40" text-anchor="start" style="white-space: pre;" direction="ltr" dominant-baseline="text-before-edge">[Container Diagram] Low-code Platform</text></g></g><g clip-path="url(#WaAJ9bPjR79qcrQwL2Kbl)"><g stroke-linecap="round" transform="translate(2776.3074343712997 611.1226307505331) rotate(0 44.830902099609375 47.48755902786388)"><path d="M89.66 47.49 C89.66 49.74, 89.51 52.02, 89.21 54.25 C88.9 56.48, 88.44 58.7, 87.85 60.87 C87.25 63.03, 86.49 65.17, 85.61 67.21 C84.73 69.26, 83.69 71.27, 82.55 73.16 C81.4 75.06, 80.1 76.88, 78.71 78.59 C77.32 80.29, 75.8 81.9, 74.19 83.38 C72.58 84.85, 70.86 86.22, 69.07 87.44 C67.28 88.65, 65.39 89.75, 63.45 90.68 C61.52 91.62, 59.5 92.42, 57.46 93.05 C55.42 93.69, 53.32 94.17, 51.21 94.49 C49.11 94.81, 46.96 94.98, 44.83 94.98 C42.7 94.98, 40.56 94.81, 38.45 94.49 C36.35 94.17, 34.24 93.69, 32.2 93.05 C30.16 92.42, 28.14 91.62, 26.21 90.68 C24.27 89.75, 22.38 88.65, 20.59 87.44 C18.8 86.22, 17.08 84.85, 15.47 83.38 C13.87 81.9, 12.34 80.29, 10.95 78.59 C9.56 76.88, 8.27 75.06, 7.12 73.16 C5.97 71.27, 4.93 69.26, 4.05 67.21 C3.17 65.17, 2.42 63.03, 1.82 60.87 C1.22 58.7, 0.76 56.48, 0.46 54.25 C0.15 52.02, 0 49.74, 0 47.49 C0 45.23, 0.15 42.96, 0.46 40.73 C0.76 38.5, 1.22 36.27, 1.82 34.11 C2.42 31.95, 3.17 29.81, 4.05 27.76 C4.93 25.71, 5.97 23.71, 7.12 21.81 C8.27 19.92, 9.56 18.09, 10.95 16.39 C12.34 14.69, 13.87 13.07, 15.47 11.6 C17.08 10.12, 18.8 8.76, 20.59 7.54 C22.38 6.32, 24.27 5.23, 26.21 4.29 C28.14 3.36, 30.16 2.56, 32.2 1.92 C34.24 1.29, 36.35 0.8, 38.45 0.48 C40.56 0.16, 42.7 0, 44.83 0 C46.96 0, 49.11 0.16, 51.21 0.48 C53.32 0.8, 55.42 1.29, 57.46 1.92 C59.5 2.56, 61.52 3.36, 63.45 4.29 C65.39 5.23, 67.28 6.32, 69.07 7.54 C70.86 8.76, 72.58 10.12, 74.19 11.6 C75.8 13.07, 77.32 14.69, 78.71 16.39 C80.1 18.09, 81.4 19.92, 82.55 21.81 C83.69 23.71, 84.73 25.71, 85.61 27.76 C86.49 29.81, 87.25 31.95, 87.85 34.11 C88.44 36.27, 88.9 38.5, 89.21 40.73 C89.51 42.96, 89.59 46.36, 89.66 47.49 C89.74 48.61, 89.74 46.36, 89.66 47.49" stroke="none" stroke-width="0" fill="#0c37a2"></path><path d="M89.66 47.49 C89.66 49.74, 89.51 52.02, 89.21 54.25 C88.9 56.48, 88.44 58.7, 87.85 60.87 C87.25 63.03, 86.49 65.17, 85.61 67.21 C84.73 69.26, 83.69 71.27, 82.55 73.16 C81.4 75.06, 80.1 76.88, 78.71 78.59 C77.32 80.29, 75.8 81.9, 74.19 83.38 C72.58 84.85, 70.86 86.22, 69.07 87.44 C67.28 88.65, 65.39 89.75, 63.45 90.68 C61.52 91.62, 59.5 92.42, 57.46 93.05 C55.42 93.69, 53.32 94.17, 51.21 94.49 C49.11 94.81, 46.96 94.98, 44.83 94.98 C42.7 94.98, 40.56 94.81, 38.45 94.49 C36.35 94.17, 34.24 93.69, 32.2 93.05 C30.16 92.42, 28.14 91.62, 26.21 90.68 C24.27 89.75, 22.38 88.65, 20.59 87.44 C18.8 86.22, 17.08 84.85, 15.47 83.38 C13.87 81.9, 12.34 80.29, 10.95 78.59 C9.56 76.88, 8.27 75.06, 7.12 73.16 C5.97 71.27, 4.93 69.26, 4.05 67.21 C3.17 65.17, 2.42 63.03, 1.82 60.87 C1.22 58.7, 0.76 56.48, 0.46 54.25 C0.15 52.02, 0 49.74, 0 47.49 C0 45.23, 0.15 42.96, 0.46 40.73 C0.76 38.5, 1.22 36.27, 1.82 34.11 C2.42 31.95, 3.17 29.81, 4.05 27.76 C4.93 25.71, 5.97 23.71, 7.12 21.81 C8.27 19.92, 9.56 18.09, 10.95 16.39 C12.34 14.69, 13.87 13.07, 15.47 11.6 C17.08 10.12, 18.8 8.76, 20.59 7.54 C22.38 6.32, 24.27 5.23, 26.21 4.29 C28.14 3.36, 30.16 2.56, 32.2 1.92 C34.24 1.29, 36.35 0.8, 38.45 0.48 C40.56 0.16, 42.7 0, 44.83 0 C46.96 0, 49.11 0.16, 51.21 0.48 C53.32 0.8, 55.42 1.29, 57.46 1.92 C59.5 2.56, 61.52 3.36, 63.45 4.29 C65.39 5.23, 67.28 6.32, 69.07 7.54 C70.86 8.76, 72.58 10.12, 74.19 11.6 C75.8 13.07, 77.32 14.69, 78.71 16.39 C80.1 18.09, 81.4 19.92, 82.55 21.81 C83.69 23.71, 84.73 25.71, 85.61 27.76 C86.49 29.81, 87.25 31.95, 87.85 34.11 C88.44 36.27, 88.9 38.5, 89.21 40.73 C89.51 42.96, 89.59 46.36, 89.66 47.49 C89.74 48.61, 89.74 46.36, 89.66 47.49" stroke="#0c37a2" stroke-width="1" fill="none"></path></g></g><g clip-path="url(#WaAJ9bPjR79qcrQwL2Kbl)"><g stroke-linecap="round" transform="translate(2707.0456545861434 697.8458109400508) rotate(0 112.67050170898438 70.04611040837608)"><path d="M35.02 0 L190.32 0 L198.53 0.55 L205.64 2.19 L211.66 4.93 L216.59 8.76 L220.42 13.68 L223.15 19.7 L224.79 26.81 L225.34 105.07 L224.79 113.28 L223.15 120.39 L220.42 126.41 L216.59 131.34 L211.66 135.17 L205.64 137.9 L198.53 139.54 L190.32 140.09 L35.02 140.09 L26.81 139.54 L19.7 137.9 L13.68 135.17 L8.76 131.34 L4.93 126.41 L2.19 120.39 L0.55 113.28 L0 105.07 L0.55 26.81 L2.19 19.7 L4.93 13.68 L8.76 8.76 L13.68 4.93 L19.7 2.19 L26.81 0.55 L35.02 0" stroke="none" stroke-width="0" fill="#0c37a2"></path><path d="M35.02 0 M35.02 0 C67.06 0, 99.11 0, 190.32 0 M35.02 0 C96.94 0, 158.86 0, 190.32 0 M190.32 0 C213.67 0, 225.34 11.67, 225.34 35.02 M190.32 0 C213.67 0, 225.34 11.67, 225.34 35.02 M225.34 35.02 C225.34 59.47, 225.34 83.91, 225.34 105.07 M225.34 35.02 C225.34 61.08, 225.34 87.13, 225.34 105.07 M225.34 105.07 C225.34 128.42, 213.67 140.09, 190.32 140.09 M225.34 105.07 C225.34 128.42, 213.67 140.09, 190.32 140.09 M190.32 140.09 C131.73 140.09, 73.13 140.09, 35.02 140.09 M190.32 140.09 C134.97 140.09, 79.63 140.09, 35.02 140.09 M35.02 140.09 C11.67 140.09, 0 128.42, 0 105.07 M35.02 140.09 C11.67 140.09, 0 128.42, 0 105.07 M0 105.07 C0 88.88, 0 72.68, 0 35.02 M0 105.07 C0 86.05, 0 67.03, 0 35.02 M0 35.02 C0 11.67, 11.67 0, 35.02 0 M0 35.02 C0 11.67, 11.67 0, 35.02 0" stroke="#0c37a2" stroke-width="1" fill="none"></path></g></g><g clip-path="url(#WaAJ9bPjR79qcrQwL2Kbl)"><g transform="translate(2726.038413585391 699.9794964451266) rotate(0 93.75 12)"><text x="93.75" y="0" font-family="Cascadia, Segoe UI Emoji" font-size="20px" fill="#fff" text-anchor="middle" style="white-space: pre;" direction="ltr" dominant-baseline="text-before-edge">Application User</text></g></g><g clip-path="url(#WaAJ9bPjR79qcrQwL2Kbl)"><g transform="translate(2771.8158946644926 726.3725692139797) rotate(0 46.875 12)"><text x="46.875" y="0" font-family="Cascadia, Segoe UI Emoji" font-size="20px" fill="#fff" text-anchor="middle" style="white-space: pre;" direction="ltr" dominant-baseline="text-before-edge">[person]</text></g></g><g clip-path="url(#WaAJ9bPjR79qcrQwL2Kbl)"><g transform="translate(2755.4557279811106 762.3670483778478) rotate(0 64.453125 36)"><text x="64.453125" y="0" font-family="Cascadia, Segoe UI Emoji" font-size="20px" fill="#fff" text-anchor="middle" style="white-space: pre;" direction="ltr" dominant-baseline="text-before-edge">End-user of</text><text x="64.453125" y="24" font-family="Cascadia, Segoe UI Emoji" font-size="20px" fill="#fff" text-anchor="middle" style="white-space: pre;" direction="ltr" dominant-baseline="text-before-edge">deployed</text><text x="64.453125" y="48" font-family="Cascadia, Segoe UI Emoji" font-size="20px" fill="#fff" text-anchor="middle" style="white-space: pre;" direction="ltr" dominant-baseline="text-before-edge">application</text></g></g><g clip-path="url(#WaAJ9bPjR79qcrQwL2Kbl)"><g stroke-linecap="round" transform="translate(2893.8483523865325 1381.7978184771882) rotate(0 144 22)"><path d="M0 0 L288 0 L288 44 L0 44" stroke="none" stroke-width="0" fill="#0c37a2"></path><path d="M0 0 C71.77 0, 143.54 0, 288 0 M0 0 C72.63 0, 145.26 0, 288 0 M288 0 C288 16.28, 288 32.56, 288 44 M288 0 C288 16.82, 288 33.65, 288 44 M288 44 C219.95 44, 151.91 44, 0 44 M288 44 C209.95 44, 131.89 44, 0 44 M0 44 C0 30.1, 0 16.19, 0 0 M0 44 C0 33.64, 0 23.27, 0 0" stroke="transparent" stroke-width="4" fill="none"></path></g></g><g clip-path="url(#WaAJ9bPjR79qcrQwL2Kbl)"><g transform="translate(2988.6296023865325 1386.997818477188) rotate(0 49.21875 16.800000000000182)"><text x="49.21875" y="0" font-family="Cascadia, Segoe UI Emoji" font-size="28px" fill="#fff" text-anchor="middle" style="white-space: pre;" direction="ltr" dominant-baseline="text-before-edge">Person</text></g></g><g clip-path="url(#WaAJ9bPjR79qcrQwL2Kbl)"><g stroke-linecap="round" transform="translate(2893.8483523865325 1438.3369827106644) rotate(0 144 22)"><path d="M0 0 L288 0 L288 44 L0 44" stroke="none" stroke-width="0" fill="#228ae7"></path><path d="M0 0 C92.79 0, 185.57 0, 288 0 M0 0 C96.38 0, 192.77 0, 288 0 M288 0 C288 11.7, 288 23.4, 288 44 M288 0 C288 10.09, 288 20.18, 288 44 M288 44 C174.92 44, 61.84 44, 0 44 M288 44 C178.45 44, 68.91 44, 0 44 M0 44 C0 32.26, 0 20.51, 0 0 M0 44 C0 30.84, 0 17.68, 0 0" stroke="transparent" stroke-width="4" fill="none"></path></g></g><g clip-path="url(#WaAJ9bPjR79qcrQwL2Kbl)"><g transform="translate(2988.6296023865325 1443.5369827106642) rotate(0 49.21875 16.800000000000182)"><text x="49.21875" y="0" font-family="Cascadia, Segoe UI Emoji" font-size="28px" fill="#fff" text-anchor="middle" style="white-space: pre;" direction="ltr" dominant-baseline="text-before-edge">System</text></g></g><g clip-path="url(#WaAJ9bPjR79qcrQwL2Kbl)"><g stroke-linecap="round" transform="translate(2893.8483523865325 1545.943110623317) rotate(0 144.5 22)"><path d="M0 0 L289 0 L289 44 L0 44" stroke="none" stroke-width="0" fill="#878f96"></path><path d="M0 0 C73.78 0, 147.56 0, 289 0 M0 0 C111.58 0, 223.16 0, 289 0 M289 0 C289 13.45, 289 26.91, 289 44 M289 0 C289 11.61, 289 23.21, 289 44 M289 44 C194.96 44, 100.91 44, 0 44 M289 44 C176.15 44, 63.3 44, 0 44 M0 44 C0 26.93, 0 9.85, 0 0 M0 44 C0 32.6, 0 21.2, 0 0" stroke="transparent" stroke-width="4" fill="none"></path></g></g><g clip-path="url(#WaAJ9bPjR79qcrQwL2Kbl)"><g transform="translate(2915.3014773865325 1551.1431106233167) rotate(0 123.046875 16.800000000000182)"><text x="123.046875" y="0" font-family="Cascadia, Segoe UI Emoji" font-size="28px" fill="#fff" text-anchor="middle" style="white-space: pre;" direction="ltr" dominant-baseline="text-before-edge">External System</text></g></g><g clip-path="url(#WaAJ9bPjR79qcrQwL2Kbl)"><g stroke-linecap="round" transform="translate(2893.8483523865325 1492.9049739572856) rotate(0 144 22)"><path d="M0 0 L288 0 L288 44 L0 44" stroke="none" stroke-width="0" fill="#4dabf7"></path><path d="M0 0 C97.48 0, 194.96 0, 288 0 M0 0 C99.44 0, 198.87 0, 288 0 M288 0 C288 11.7, 288 23.39, 288 44 M288 0 C288 11.14, 288 22.28, 288 44 M288 44 C209.81 44, 131.61 44, 0 44 M288 44 C204.95 44, 121.9 44, 0 44 M0 44 C0 34.45, 0 24.9, 0 0 M0 44 C0 28.59, 0 13.17, 0 0" stroke="transparent" stroke-width="4" fill="none"></path></g></g><g clip-path="url(#WaAJ9bPjR79qcrQwL2Kbl)"><g transform="translate(2964.0202273865325 1498.1049739572854) rotate(0 73.828125 16.800000000000182)"><text x="73.828125" y="0" font-family="Cascadia, Segoe UI Emoji" font-size="28px" fill="#fff" text-anchor="middle" style="white-space: pre;" direction="ltr" dominant-baseline="text-before-edge">Container</text></g></g><g clip-path="url(#WaAJ9bPjR79qcrQwL2Kbl)"><g stroke-linecap="round" transform="translate(1605.6426503989842 947.6184258445992) rotate(0 141.36771507145386 80.41586801378253)"><path d="M0 0 L282.74 0 L282.74 160.83 L0 160.83" stroke="none" stroke-width="0" fill="#55b8f5"></path><path d="M0 0 C67.76 0, 135.52 0, 282.74 0 M0 0 C57.59 0, 115.18 0, 282.74 0 M282.74 0 C282.74 60.15, 282.74 120.3, 282.74 160.83 M282.74 0 C282.74 42.72, 282.74 85.44, 282.74 160.83 M282.74 160.83 C205.19 160.83, 127.64 160.83, 0 160.83 M282.74 160.83 C215.72 160.83, 148.7 160.83, 0 160.83 M0 160.83 C0 103.03, 0 45.23, 0 0 M0 160.83 C0 109.99, 0 59.15, 0 0" stroke="#343a40" stroke-width="1" fill="none"></path></g></g><g clip-path="url(#WaAJ9bPjR79qcrQwL2Kbl)"><g transform="translate(1657.6776036638857 956.6932589401758) rotate(0 93.75 24)"><text x="93.75" y="0" font-family="Cascadia, Segoe UI Emoji" font-size="20px" fill="#fff" text-anchor="middle" style="white-space: pre;" direction="ltr" dominant-baseline="text-before-edge">Data Management </text><text x="93.75" y="24" font-family="Cascadia, Segoe UI Emoji" font-size="20px" fill="#fff" text-anchor="middle" style="white-space: pre;" direction="ltr" dominant-baseline="text-before-edge">Microservice</text></g></g><g clip-path="url(#WaAJ9bPjR79qcrQwL2Kbl)"><g transform="translate(1656.3121974883325 1013.7590375688742) rotate(0 89.0625 9.599999999999909)"><text x="89.0625" y="0" font-family="Cascadia, Segoe UI Emoji" font-size="16px" fill="#fff" text-anchor="middle" style="white-space: pre;" direction="ltr" dominant-baseline="text-before-edge">[container: NestJS]</text></g></g><g clip-path="url(#WaAJ9bPjR79qcrQwL2Kbl)"><g transform="translate(1610.2162691104459 1040.07647006782) rotate(0 139.39453125 28.558254523026335)"><text x="139.39453125" y="0" font-family="Cascadia, Segoe UI Emoji" font-size="15.865696957236834px" fill="#fff" text-anchor="middle" style="white-space: pre;" direction="ltr" dominant-baseline="text-before-edge">Backend system providing </text><text x="139.39453125" y="19.0388363486842" font-family="Cascadia, Segoe UI Emoji" font-size="15.865696957236834px" fill="#fff" text-anchor="middle" style="white-space: pre;" direction="ltr" dominant-baseline="text-before-edge">functionality via RESTful API </text><text x="139.39453125" y="38.0776726973684" font-family="Cascadia, Segoe UI Emoji" font-size="15.865696957236834px" fill="#fff" text-anchor="middle" style="white-space: pre;" direction="ltr" dominant-baseline="text-before-edge">endpoints</text></g></g><g clip-path="url(#WaAJ9bPjR79qcrQwL2Kbl)"><g stroke-linecap="round" transform="translate(1964.8588949152036 300.2784676711872) rotate(0 141.36771507145386 88.95564545535262)"><path d="M0 0 L282.74 0 L282.74 177.91 L0 177.91" stroke="none" stroke-width="0" fill="#55b8f5"></path><path d="M0 0 C70.29 0, 140.58 0, 282.74 0 M0 0 C103.87 0, 207.74 0, 282.74 0 M282.74 0 C282.74 44.36, 282.74 88.72, 282.74 177.91 M282.74 0 C282.74 45.76, 282.74 91.53, 282.74 177.91 M282.74 177.91 C221.82 177.91, 160.91 177.91, 0 177.91 M282.74 177.91 C181.19 177.91, 79.65 177.91, 0 177.91 M0 177.91 C0 114.65, 0 51.38, 0 0 M0 177.91 C0 107.82, 0 37.74, 0 0" stroke="#343a40" stroke-width="1" fill="none"></path></g></g><g clip-path="url(#WaAJ9bPjR79qcrQwL2Kbl)"><g transform="translate(2022.8121556816823 308.9376449144911) rotate(0 87.890625 36)"><text x="87.890625" y="0" font-family="Cascadia, Segoe UI Emoji" font-size="20px" fill="#fff" text-anchor="middle" style="white-space: pre;" direction="ltr" dominant-baseline="text-before-edge">Business Logic </text><text x="87.890625" y="24" font-family="Cascadia, Segoe UI Emoji" font-size="20px" fill="#fff" text-anchor="middle" style="white-space: pre;" direction="ltr" dominant-baseline="text-before-edge">Execution </text><text x="87.890625" y="48" font-family="Cascadia, Segoe UI Emoji" font-size="20px" fill="#fff" text-anchor="middle" style="white-space: pre;" direction="ltr" dominant-baseline="text-before-edge">Microservice</text></g></g><g clip-path="url(#WaAJ9bPjR79qcrQwL2Kbl)"><g transform="translate(2016.0084759985893 386.01475468787066) rotate(0 89.0625 9.599999999999909)"><text x="89.0625" y="0" font-family="Cascadia, Segoe UI Emoji" font-size="16px" fill="#fff" text-anchor="middle" style="white-space: pre;" direction="ltr" dominant-baseline="text-before-edge">[container: NestJS]</text></g></g><g clip-path="url(#WaAJ9bPjR79qcrQwL2Kbl)"><g transform="translate(1970.1066823987148 413.2842497276688) rotate(0 139.39453125 28.558254523026335)"><text x="139.39453125" y="0" font-family="Cascadia, Segoe UI Emoji" font-size="15.865696957236834px" fill="#fff" text-anchor="middle" style="white-space: pre;" direction="ltr" dominant-baseline="text-before-edge">Backend system providing </text><text x="139.39453125" y="19.0388363486842" font-family="Cascadia, Segoe UI Emoji" font-size="15.865696957236834px" fill="#fff" text-anchor="middle" style="white-space: pre;" direction="ltr" dominant-baseline="text-before-edge">functionality via RESTful API </text><text x="139.39453125" y="38.0776726973684" font-family="Cascadia, Segoe UI Emoji" font-size="15.865696957236834px" fill="#fff" text-anchor="middle" style="white-space: pre;" direction="ltr" dominant-baseline="text-before-edge">endpoints</text></g></g><g clip-path="url(#WaAJ9bPjR79qcrQwL2Kbl)"><g stroke-linecap="round" transform="translate(1888.7779035029198 1218.2250561773062) rotate(0 141.36771507145386 85.37555545769737)"><path d="M0 0 L282.74 0 L282.74 170.75 L0 170.75" stroke="none" stroke-width="0" fill="#55b8f5"></path><path d="M0 0 C69.17 0, 138.33 0, 282.74 0 M0 0 C71.63 0, 143.25 0, 282.74 0 M282.74 0 C282.74 42.52, 282.74 85.04, 282.74 170.75 M282.74 0 C282.74 64.59, 282.74 129.18, 282.74 170.75 M282.74 170.75 C170.67 170.75, 58.6 170.75, 0 170.75 M282.74 170.75 C174.62 170.75, 66.5 170.75, 0 170.75 M0 170.75 C0 112.67, 0 54.59, 0 0 M0 170.75 C0 135.95, 0 101.14, 0 0" stroke="#343a40" stroke-width="1" fill="none"></path></g></g><g clip-path="url(#WaAJ9bPjR79qcrQwL2Kbl)"><g transform="translate(1900.2041656854744 1226.8842334206083) rotate(0 134.765625 24)"><text x="134.765625" y="0" font-family="Cascadia, Segoe UI Emoji" font-size="20px" fill="#fff" text-anchor="middle" style="white-space: pre;" direction="ltr" dominant-baseline="text-before-edge">Application Deployment </text><text x="134.765625" y="24" font-family="Cascadia, Segoe UI Emoji" font-size="20px" fill="#fff" text-anchor="middle" style="white-space: pre;" direction="ltr" dominant-baseline="text-before-edge">Microservice</text></g></g><g clip-path="url(#WaAJ9bPjR79qcrQwL2Kbl)"><g transform="translate(1939.6447084643478 1289.4030419422406) rotate(0 89.0625 9.599999999999909)"><text x="89.0625" y="0" font-family="Cascadia, Segoe UI Emoji" font-size="16px" fill="#fff" text-anchor="middle" style="white-space: pre;" direction="ltr" dominant-baseline="text-before-edge">[container: NestJS]</text></g></g><g clip-path="url(#WaAJ9bPjR79qcrQwL2Kbl)"><g transform="translate(1893.4326249040787 1321.230838233786) rotate(0 139.39453125 28.558254523026335)"><text x="139.39453125" y="0" font-family="Cascadia, Segoe UI Emoji" font-size="15.865696957236834px" fill="#fff" text-anchor="middle" style="white-space: pre;" direction="ltr" dominant-baseline="text-before-edge">Backend system providing </text><text x="139.39453125" y="19.0388363486842" font-family="Cascadia, Segoe UI Emoji" font-size="15.865696957236834px" fill="#fff" text-anchor="middle" style="white-space: pre;" direction="ltr" dominant-baseline="text-before-edge">functionality via RESTful API </text><text x="139.39453125" y="38.0776726973684" font-family="Cascadia, Segoe UI Emoji" font-size="15.865696957236834px" fill="#fff" text-anchor="middle" style="white-space: pre;" direction="ltr" dominant-baseline="text-before-edge">endpoints</text></g></g><g clip-path="url(#WaAJ9bPjR79qcrQwL2Kbl)"><g stroke-linecap="round" transform="translate(1603.3133160282687 612.0681727169676) rotate(0 141.36771507145386 80.41586801378253)"><path d="M0 0 L282.74 0 L282.74 160.83 L0 160.83" stroke="none" stroke-width="0" fill="#55b8f5"></path><path d="M0 0 C87.04 0, 174.08 0, 282.74 0 M0 0 C76.09 0, 152.18 0, 282.74 0 M282.74 0 C282.74 36.21, 282.74 72.42, 282.74 160.83 M282.74 0 C282.74 34.15, 282.74 68.31, 282.74 160.83 M282.74 160.83 C202.68 160.83, 122.62 160.83, 0 160.83 M282.74 160.83 C225 160.83, 167.26 160.83, 0 160.83 M0 160.83 C0 124.49, 0 88.14, 0 0 M0 160.83 C0 121.88, 0 82.93, 0 0" stroke="#343a40" stroke-width="1" fill="none"></path></g></g><g clip-path="url(#WaAJ9bPjR79qcrQwL2Kbl)"><g transform="translate(1679.0144728071518 632.7433507627566) rotate(0 64.453125 12)"><text x="64.453125" y="0" font-family="Cascadia, Segoe UI Emoji" font-size="20px" fill="#fff" text-anchor="middle" style="white-space: pre;" direction="ltr" dominant-baseline="text-before-edge">API Gateway</text></g></g><g clip-path="url(#WaAJ9bPjR79qcrQwL2Kbl)"><g transform="translate(1728.9828631176151 678.2087844412408) rotate(0 14.0625 9.599999999999909)"><text x="14.0625" y="0" font-family="Cascadia, Segoe UI Emoji" font-size="16px" fill="#fff" text-anchor="middle" style="white-space: pre;" direction="ltr" dominant-baseline="text-before-edge">[?]</text></g></g><g clip-path="url(#WaAJ9bPjR79qcrQwL2Kbl)"><g transform="translate(1607.8869347397285 704.5262169401876) rotate(0 139.39453125 28.558254523026335)"><text x="139.39453125" y="0" font-family="Cascadia, Segoe UI Emoji" font-size="15.865696957236834px" fill="#fff" text-anchor="middle" style="white-space: pre;" direction="ltr" dominant-baseline="text-before-edge">Backend system providing </text><text x="139.39453125" y="19.0388363486842" font-family="Cascadia, Segoe UI Emoji" font-size="15.865696957236834px" fill="#fff" text-anchor="middle" style="white-space: pre;" direction="ltr" dominant-baseline="text-before-edge">functionality via RESTful API </text><text x="139.39453125" y="38.0776726973684" font-family="Cascadia, Segoe UI Emoji" font-size="15.865696957236834px" fill="#fff" text-anchor="middle" style="white-space: pre;" direction="ltr" dominant-baseline="text-before-edge">endpoints</text></g></g><g clip-path="url(#WaAJ9bPjR79qcrQwL2Kbl)"><g mask="url(#mask-RJBXgzm52Ry1i8-BrpyEH)" stroke-linecap="round"><g transform="translate(2823.288345280913 844.0618488704749) rotate(0 0.45573787852390524 42.351826023422745)"><path d="M0 0 C0.24 22.64, 0.49 45.28, 0.91 84.7" stroke="#343a40" stroke-width="2.5" fill="none" stroke-dasharray="8 10"></path></g><g transform="translate(2823.288345280913 844.0618488704749) rotate(0 0.45573787852390524 42.351826023422745)"><path d="M0.91 84.7 L-5.57 71.18 L7.1 71.04 L0.91 84.7" stroke="none" stroke-width="0" fill="#343a40" fill-rule="evenodd"></path><path d="M0.91 84.7 C-0.82 81.09, -2.56 77.47, -5.57 71.18 M-5.57 71.18 C-1.55 71.13, 2.48 71.09, 7.1 71.04 M7.1 71.04 C5.86 73.78, 4.62 76.53, 0.91 84.7 M0.91 84.7 C0.91 84.7, 0.91 84.7, 0.91 84.7" stroke="#343a40" stroke-width="2.5" fill="none"></path></g></g><mask id="mask-RJBXgzm52Ry1i8-BrpyEH"><rect x="0" y="0" fill="#fff" width="2924.1998210379606" height="1028.7655009173204"></rect><rect x="2800.3065831594377" y="874.4136748938972" fill="#000" width="46.875" height="24" opacity="1"></rect></mask></g><g clip-path="url(#WaAJ9bPjR79qcrQwL2Kbl)"><g transform="translate(2800.3065831594377 874.4136748938972) rotate(0 23.43749999999909 12.000000000000455)"><text x="23.4375" y="0" font-family="Cascadia, Segoe UI Emoji" font-size="20px" fill="#343a40" text-anchor="middle" style="white-space: pre;" direction="ltr" dominant-baseline="text-before-edge">Uses</text></g></g><g clip-path="url(#WaAJ9bPjR79qcrQwL2Kbl)"><g mask="url(#mask-ZZ5VdqvSxCRuRY-9OqX7l)" stroke-linecap="round"><g transform="translate(2715.582300582073 1107.6357990090264) rotate(0 -27.488821342491065 50.254908076687116)"><path d="M0 0 C-18.97 34.68, -37.94 69.36, -54.98 100.51" stroke="#343a40" stroke-width="2.5" fill="none" stroke-dasharray="8 10"></path></g><g transform="translate(2715.582300582073 1107.6357990090264) rotate(0 -27.488821342491065 50.254908076687116)"><path d="M-54.98 100.51 L-54.02 85.54 L-42.89 91.63 L-54.98 100.51" stroke="none" stroke-width="0" fill="#343a40" fill-rule="evenodd"></path><path d="M-54.98 100.51 C-54.65 95.35, -54.31 90.18, -54.02 85.54 M-54.02 85.54 C-49.96 87.76, -45.9 89.98, -42.89 91.63 M-42.89 91.63 C-45.71 93.7, -48.53 95.77, -54.98 100.51 M-54.98 100.51 C-54.98 100.51, -54.98 100.51, -54.98 100.51" stroke="#343a40" stroke-width="2.5" fill="none"></path></g></g><mask id="mask-ZZ5VdqvSxCRuRY-9OqX7l"><rect x="0" y="0" fill="#fff" width="2870.559943267055" height="1308.1456151624006"></rect><rect x="2594.343479239582" y="1133.890707085713" fill="#000" width="187.5" height="48" opacity="1"></rect></mask></g><g clip-path="url(#WaAJ9bPjR79qcrQwL2Kbl)"><g transform="translate(2594.343479239582 1133.890707085714) rotate(0 93.75 23.999999999999545)"><text x="93.75" y="0" font-family="Cascadia, Segoe UI Emoji" font-size="20px" fill="#343a40" text-anchor="middle" style="white-space: pre;" direction="ltr" dominant-baseline="text-before-edge">Access Deployed </text><text x="93.75" y="24" font-family="Cascadia, Segoe UI Emoji" font-size="20px" fill="#343a40" text-anchor="middle" style="white-space: pre;" direction="ltr" dominant-baseline="text-before-edge">Application via</text></g></g><g clip-path="url(#WaAJ9bPjR79qcrQwL2Kbl)"><g mask="url(#mask-aCnfZjlBrAjNeKmh4uzK4)" stroke-linecap="round"><g transform="translate(1746.0655377962157 797.6056214121554) rotate(0 0.27604492346836196 60.71072583259411)"><path d="M0 0 C0.15 32.39, 0.29 64.79, 0.55 121.42 M0 0 C0.13 29.66, 0.27 59.31, 0.55 121.42" stroke="#343a40" stroke-width="2" fill="none"></path></g><g transform="translate(1746.0655377962157 797.6056214121554) rotate(0 0.27604492346836196 60.71072583259411)"><path d="M0.55 121.42 L-5.85 107.86 L6.83 107.8 L0.55 121.42" stroke="none" stroke-width="0" fill="#343a40" fill-rule="evenodd"></path><path d="M0.55 121.42 C-1.16 117.8, -2.86 114.18, -5.85 107.86 M0.55 121.42 C-1.01 118.11, -2.57 114.79, -5.85 107.86 M-5.85 107.86 C-2.67 107.84, 0.5 107.83, 6.83 107.8 M-5.85 107.86 C-3.18 107.84, -0.51 107.83, 6.83 107.8 M6.83 107.8 C5.12 111.52, 3.4 115.23, 0.55 121.42 M6.83 107.8 C4.52 112.81, 2.21 117.83, 0.55 121.42 M0.55 121.42 C0.55 121.42, 0.55 121.42, 0.55 121.42 M0.55 121.42 C0.55 121.42, 0.55 121.42, 0.55 121.42" stroke="#343a40" stroke-width="2" fill="none"></path></g></g><mask id="mask-aCnfZjlBrAjNeKmh4uzK4"><rect x="0" y="0" fill="#fff" width="1846.6176276431524" height="1019.0270730773436"></rect><rect x="1652.591582719684" y="834.3163472447495" fill="#000" width="187.5" height="48" opacity="1"></rect></mask></g><g clip-path="url(#WaAJ9bPjR79qcrQwL2Kbl)"><g transform="translate(1652.591582719684 834.3163472447495) rotate(0 93.75 24)"><text x="93.75" y="0" font-family="Cascadia, Segoe UI Emoji" font-size="20px" fill="#343a40" text-anchor="middle" style="white-space: pre;" direction="ltr" dominant-baseline="text-before-edge">Makes request to</text><text x="93.75" y="24" font-family="Cascadia, Segoe UI Emoji" font-size="20px" fill="#343a40" text-anchor="middle" style="white-space: pre;" direction="ltr" dominant-baseline="text-before-edge">[HTTPS/JSON]</text></g></g><g clip-path="url(#WaAJ9bPjR79qcrQwL2Kbl)"><g mask="url(#mask-Puqxe7P-Om-bDwmcYl2AD)" stroke-linecap="round"><g transform="translate(1780.597418729889 1127.4534772750103) rotate(0 43.283804222030994 67.30719728859322)"><path d="M0 0 C20.75 32.27, 41.51 64.54, 86.57 134.61 M0 0 C33.78 52.52, 67.55 105.05, 86.57 134.61" stroke="#343a40" stroke-width="2" fill="none"></path></g><g transform="translate(1780.597418729889 1127.4534772750103) rotate(0 43.283804222030994 67.30719728859322)"><path d="M86.57 134.61 L73.88 126.61 L84.55 119.75 L86.57 134.61" stroke="none" stroke-width="0" fill="#343a40" fill-rule="evenodd"></path><path d="M86.57 134.61 C83.53 132.7, 80.49 130.78, 73.88 126.61 M86.57 134.61 C81.62 131.49, 76.67 128.37, 73.88 126.61 M73.88 126.61 C77.73 124.14, 81.57 121.67, 84.55 119.75 M73.88 126.61 C77.22 124.47, 80.55 122.32, 84.55 119.75 M84.55 119.75 C85.2 124.54, 85.85 129.34, 86.57 134.61 M84.55 119.75 C85.13 124.06, 85.72 128.37, 86.57 134.61 M86.57 134.61 C86.57 134.61, 86.57 134.61, 86.57 134.61 M86.57 134.61 C86.57 134.61, 86.57 134.61, 86.57 134.61" stroke="#343a40" stroke-width="2" fill="none"></path></g></g><mask id="mask-Puqxe7P-Om-bDwmcYl2AD"><rect x="0" y="0" fill="#fff" width="1967.1650271739509" height="1362.0678718521967"></rect><rect x="1730.131222951919" y="1158.760674563603" fill="#000" width="187.5" height="72" opacity="1"></rect></mask></g><g clip-path="url(#WaAJ9bPjR79qcrQwL2Kbl)"><g transform="translate(1730.131222951919 1158.7606745636022) rotate(0 93.75000000000091 36.000000000000455)"><text x="93.75" y="0" font-family="Cascadia, Segoe UI Emoji" font-size="20px" fill="#343a40" text-anchor="middle" style="white-space: pre;" direction="ltr" dominant-baseline="text-before-edge">Send async </text><text x="93.75" y="24" font-family="Cascadia, Segoe UI Emoji" font-size="20px" fill="#343a40" text-anchor="middle" style="white-space: pre;" direction="ltr" dominant-baseline="text-before-edge">messages/events </text><text x="93.75" y="48" font-family="Cascadia, Segoe UI Emoji" font-size="20px" fill="#343a40" text-anchor="middle" style="white-space: pre;" direction="ltr" dominant-baseline="text-before-edge">[HTTPS/JSON]</text></g></g><g clip-path="url(#WaAJ9bPjR79qcrQwL2Kbl)"><g mask="url(#mask-PsCcubmgDuEQpn8e1QXsA)" stroke-linecap="round"><g transform="translate(2551.981092524411 1209.5769157877467) rotate(0 -319.3026699908123 -235.58810846889673)"><path d="M0 0 C-223.87 -165.18, -447.75 -330.36, -638.61 -471.18" stroke="#343a40" stroke-width="2.5" fill="none" stroke-dasharray="8 10"></path></g><g transform="translate(2551.981092524411 1209.5769157877467) rotate(0 -319.3026699908123 -235.58810846889673)"><path d="M-638.61 -471.18 L-623.9 -468.21 L-631.43 -458 L-638.61 -471.18" stroke="none" stroke-width="0" fill="#343a40" fill-rule="evenodd"></path><path d="M-638.61 -471.18 C-633.45 -470.13, -628.3 -469.09, -623.9 -468.21 M-623.9 -468.21 C-626.82 -464.25, -629.74 -460.29, -631.43 -458 M-631.43 -458 C-633.9 -462.55, -636.38 -467.09, -638.61 -471.18 M-638.61 -471.18 C-638.61 -471.18, -638.61 -471.18, -638.61 -471.18" stroke="#343a40" stroke-width="2.5" fill="none"></path></g></g><mask id="mask-PsCcubmgDuEQpn8e1QXsA"><rect x="0" y="0" fill="#fff" width="3290.5864325060356" height="1780.7531327255401"></rect><rect x="2138.9284225335996" y="949.9888073188495" fill="#000" width="187.5" height="48" opacity="1"></rect></mask></g><g clip-path="url(#WaAJ9bPjR79qcrQwL2Kbl)"><g transform="translate(2138.9284225335996 949.9888073188495) rotate(0 93.74999999999909 24.000000000000455)"><text x="93.75" y="0" font-family="Cascadia, Segoe UI Emoji" font-size="20px" fill="#343a40" text-anchor="middle" style="white-space: pre;" direction="ltr" dominant-baseline="text-before-edge">Make requests to</text><text x="93.75" y="24" font-family="Cascadia, Segoe UI Emoji" font-size="20px" fill="#343a40" text-anchor="middle" style="white-space: pre;" direction="ltr" dominant-baseline="text-before-edge">[HTTPS/JSON]</text></g></g><g clip-path="url(#WaAJ9bPjR79qcrQwL2Kbl)"><g mask="url(#mask-TIoy2h4G4nOvHBJrenNg3)" stroke-linecap="round"><g transform="translate(1754.9965196412868 585.6830744155413) rotate(0 89.67370394493355 -52.373008649376516)"><path d="M0 0 C61.74 -36.06, 123.47 -72.11, 179.35 -104.75 M0 0 C61.27 -35.78, 122.54 -71.57, 179.35 -104.75" stroke="#343a40" stroke-width="2" fill="none"></path></g><g transform="translate(1754.9965196412868 585.6830744155413) rotate(0 89.67370394493355 -52.373008649376516)"><path d="M179.35 -104.75 L170.81 -92.42 L164.41 -103.36 L179.35 -104.75" stroke="none" stroke-width="0" fill="#343a40" fill-rule="evenodd"></path><path d="M179.35 -104.75 C176.41 -100.5, 173.47 -96.26, 170.81 -92.42 M179.35 -104.75 C176.43 -100.53, 173.51 -96.32, 170.81 -92.42 M170.81 -92.42 C168.81 -95.83, 166.82 -99.25, 164.41 -103.36 M170.81 -92.42 C169.48 -94.69, 168.15 -96.96, 164.41 -103.36 M164.41 -103.36 C168.96 -103.78, 173.51 -104.21, 179.35 -104.75 M164.41 -103.36 C169.76 -103.86, 175.12 -104.35, 179.35 -104.75 M179.35 -104.75 C179.35 -104.75, 179.35 -104.75, 179.35 -104.75 M179.35 -104.75 C179.35 -104.75, 179.35 -104.75, 179.35 -104.75" stroke="#343a40" stroke-width="2" fill="none"></path></g></g><mask id="mask-TIoy2h4G4nOvHBJrenNg3"><rect x="0" y="0" fill="#fff" width="2034.343927531154" height="790.4290917142944"></rect><rect x="1750.9202235862194" y="509.31006576616437" fill="#000" width="187.5" height="48" opacity="1"></rect></mask></g><g clip-path="url(#WaAJ9bPjR79qcrQwL2Kbl)"><g transform="translate(1750.9202235862194 509.31006576616437) rotate(0 93.75000000000091 24.000000000000455)"><text x="93.75" y="0" font-family="Cascadia, Segoe UI Emoji" font-size="20px" fill="#343a40" text-anchor="middle" style="white-space: pre;" direction="ltr" dominant-baseline="text-before-edge">Make requests to</text><text x="93.75" y="24" font-family="Cascadia, Segoe UI Emoji" font-size="20px" fill="#343a40" text-anchor="middle" style="white-space: pre;" direction="ltr" dominant-baseline="text-before-edge">[HTTPS/JSON]</text></g></g></svg>